<svg width="48" height="48" viewBox="0 0 48 48" fill="none" xmlns="http://www.w3.org/2000/svg">
<path d="M41.2391 9.6407C41.8313 8.90043 41.6758 8.49329 41.2909 7.67899C40.5506 6.10963 37.9671 4.14792 36.3977 3.43726C35.3392 2.95609 33.7106 2.48972 32.726 3.34103L27.2036 12.7424H27.1296C26.9223 12.4463 26.7076 12.1058 26.4708 11.8393C26.3301 11.6838 25.9378 11.2841 25.7749 11.1879C25.2345 10.8695 25.1309 11.3063 25.1605 11.7653C25.1605 11.8837 25.2049 12.2094 25.2345 12.3205C25.2345 12.3205 24.4424 12.1798 24.0427 12.1428C10.9474 10.9362 1.61999 24.7199 7.81603 36.4014C13.5753 47.2611 28.8396 48.2382 35.9536 38.2002C39.8104 32.7592 40.025 25.3566 36.4051 19.7379C36.4051 19.7231 36.4051 19.7157 36.3903 19.7083C36.6124 19.3308 36.6346 18.5905 36.4792 18.1834C36.2571 17.5986 35.7611 17.1618 35.2059 16.9027L35.1837 16.8139C35.391 16.6066 35.5983 16.3697 35.7907 16.1402C37.5822 13.9787 39.5069 11.8319 41.2465 9.65551L41.2391 9.6407Z" stroke="white" stroke-width="1.70261" stroke-miterlimit="10"/>
<path d="M22.466 46.01C22.0811 46.01 21.6961 45.9952 21.3038 45.973C15.2262 45.5807 9.90368 42.1458 7.06106 36.7863C5.5213 33.877 4.81805 30.6569 5.04013 27.4737C5.2474 24.4756 6.25417 21.5516 7.94198 19.0051C9.64459 16.4437 11.9838 14.3784 14.6932 13.0163C17.5729 11.5728 20.83 10.9732 24.1168 11.2767C24.176 11.2767 24.2501 11.2915 24.3241 11.2989C24.3833 10.8695 24.5758 10.5586 24.8867 10.3661C25.1088 10.2329 25.5751 10.0626 26.2118 10.4402C26.5227 10.6252 26.9816 11.1138 27.0927 11.2397L32.0673 2.77841L32.1709 2.68958C33.5626 1.48294 35.6354 2.14918 36.7458 2.65997C38.367 3.39283 41.1874 5.47298 42.0535 7.31625C42.4384 8.13794 42.8382 8.98925 41.898 10.1737C40.8394 11.5062 39.692 12.8386 38.589 14.1341C37.8784 14.9706 37.1381 15.8293 36.4349 16.6732C36.4349 16.6732 36.4349 16.6732 36.4275 16.6806C36.805 17.0137 37.0937 17.4135 37.2714 17.8651C37.4416 18.3092 37.486 19.0051 37.3306 19.6047C40.8987 25.438 40.6396 33.0479 36.6495 38.6814C33.3553 43.3228 28.1143 46.01 22.466 46.01ZM22.4438 12.9053C17.1583 12.9053 12.354 15.4666 9.37069 19.9526C6.12832 24.8236 5.83222 30.8197 8.5712 35.9868C11.1325 40.8207 15.9369 43.9151 21.4222 44.2704C26.915 44.6257 32.0895 42.168 35.2652 37.6894C38.9074 32.552 39.1072 25.5786 35.7686 20.3005L35.2578 19.96L35.6576 19.2716C35.7316 19.1383 35.7612 18.6719 35.6872 18.4795C35.5613 18.1538 35.2578 17.8576 34.8507 17.6652L34.4954 17.5023L34.2289 16.5548L34.5842 16.1995C34.7767 16.007 34.9691 15.7775 35.132 15.585C35.8426 14.7263 36.5829 13.8602 37.301 13.0237C38.3966 11.743 39.5292 10.4254 40.573 9.1151C40.7605 8.87821 40.7432 8.52041 40.5211 8.04171C39.9215 6.77585 37.5897 4.91038 36.0499 4.21453C35.6058 4.01465 34.14 3.41504 33.385 3.91102L27.6923 13.5863H26.6929L26.4413 13.2236C26.3894 13.1496 26.3302 13.0681 26.2784 12.9867C26.2192 12.8979 26.1525 12.8016 26.0859 12.7128V14.6079L24.7905 13.0903C24.524 13.0459 24.1686 12.9941 23.9688 12.9719C23.458 12.9275 22.9472 12.8979 22.4438 12.8979V12.9053Z" fill="white"/>
<path d="M25.242 12.3131C25.1827 12.054 25.1753 11.8763 25.1679 11.7653C25.1383 11.3063 25.242 10.8621 25.7824 11.1878C25.9526 11.2841 26.345 11.6838 26.4782 11.8393C26.7151 12.1132 26.9298 12.4463 27.137 12.7424H27.2111L32.7335 3.34101C33.7106 2.49711 35.3392 2.95608 36.4052 3.43725C37.9672 4.14791 40.5581 6.10961 41.2984 7.67898C41.6833 8.49327 41.8387 8.90042 41.2465 9.64069C39.5143 11.8245 37.5896 13.9638 35.7908 16.1254C35.5983 16.3549 35.3984 16.5918 35.1837 16.7991L35.206 16.8879C35.7612 17.147 36.2571 17.5838 36.4792 18.1686C36.6347 18.5757 36.6051 19.316 36.383 19.6935C36.2127 19.9452 36.0795 20.0785 36.0499 20.0859C37.8857 22.9803 38.7888 26.6002 38.4705 30.0869C37.4712 41.0206 25.96 47.8385 15.9294 43.4191C7.26827 39.5993 3.71499 29.1245 8.31945 20.7891C11.6433 14.7707 18.624 11.5432 25.39 12.809C25.3678 12.735 25.2864 12.5647 25.2346 12.3056L25.242 12.3131Z" fill="#020201"/>
<path d="M25.2419 12.3132C25.2419 12.3132 25.3234 12.6241 25.4122 12.8239C19.7936 11.7209 13.9677 13.8307 10.2663 18.1391C7.23863 21.6553 5.86914 26.3708 6.55758 30.9827C8.23799 42.1607 20.482 48.2383 30.3868 42.5605C36.4792 39.0664 39.5809 32.1301 38.13 25.216C37.7524 23.4098 37.0196 21.6849 36.0572 20.1156C36.1831 20.0045 36.2867 19.8935 36.4052 19.7158C40.0473 25.3345 39.8326 32.7593 35.9758 38.2077C28.8544 48.2457 13.5975 47.2686 7.83825 36.4088C1.64221 24.7274 10.9696 10.9437 24.0649 12.1503C24.4646 12.1873 24.8644 12.2539 25.2567 12.328L25.2419 12.3132Z" fill="#C6E942"/>
<path d="M32.6521 17.1545C35.3393 19.5159 37.2565 23.158 37.6711 26.7187C38.9518 37.7931 28.5806 46.5283 17.869 43.2563C9.94069 40.8356 5.49909 32.6408 7.62365 24.5867C9.80744 16.2957 18.7647 11.3434 26.9742 13.9417C28.1513 15.2446 29.7058 16.0885 31.3862 16.5622C32.0673 16.7547 32.0969 16.6585 32.6595 17.1545H32.6521Z" fill="#DCE3D1"/>
<path d="M33.4367 12.6462C34.0659 13.1422 34.8654 13.9047 35.2874 14.5783C35.3984 14.756 35.6945 15.2002 35.5983 15.4074L34.5989 16.5771L32.0746 15.7331C31.5342 15.4148 31.0234 15.0225 30.4757 14.7042C29.5577 14.1712 28.5806 13.764 27.5812 13.3939C27.5516 13.2755 28.1142 12.3279 28.2178 12.1503C28.4695 11.7135 28.7508 11.2989 28.9877 10.8622C29.0025 10.84 29.0321 10.8252 29.0617 10.8252C29.232 10.8104 29.6762 10.9362 29.8612 10.988C31.0086 11.2767 32.5114 11.9208 33.4367 12.6536V12.6462Z" fill="#FCFCFC"/>
<path d="M21.4739 30.2868C21.8885 30.3164 22.3401 30.4941 22.3845 30.9604C22.4141 31.2639 22.0514 30.8198 22.0069 30.805C21.8737 30.7458 21.5332 30.9604 21.3555 31.0122C20.8743 31.1455 20.3043 31.1751 19.8231 31.0789C19.0977 32.0708 17.9651 32.3965 16.7658 32.3151C15.2187 32.2189 14.6561 30.9234 14.5302 29.5391C14.1823 29.3318 13.7974 29.1098 13.4791 28.8507C13.368 28.7544 13.442 28.6804 13.2126 28.6878C13.1459 28.6878 12.8498 28.7914 12.872 28.673C12.9165 28.4213 13.4717 28.1548 13.7011 28.2733C13.8566 28.3473 13.6197 28.4361 13.6715 28.5472C13.6863 28.5842 13.9232 28.7766 13.975 28.8137C14.4932 29.1838 15.0928 29.0653 15.6851 29.3392C15.8257 29.4059 16.0848 29.6131 16.2032 29.6428C16.4475 29.6946 16.8473 29.6279 17.1212 29.6502C18.3574 29.7538 19.4308 30.8346 20.6004 30.8124C20.7485 30.8124 21.3333 30.7087 21.4739 30.6643C21.7182 30.5829 21.4369 30.3238 21.4739 30.2868Z" fill="#020201"/>
<path d="M23.5246 22.129C26.2413 21.7589 27.7441 25.0753 25.6787 26.8075C23.8059 28.3843 20.9632 26.7483 21.3334 24.3424C21.4888 23.2913 22.4586 22.2697 23.5246 22.129Z" fill="#020201"/>
<path d="M12.5317 23.7428C11.5398 22.7509 11.5768 21.0705 12.5909 20.1155C14.2935 18.5017 17.0547 19.8268 16.8919 22.1735C16.7364 24.335 14.0641 25.2752 12.5317 23.7428Z" fill="#020201"/>
<path d="M17.4101 25.0901C17.3583 25.1493 17.114 25.364 17.0547 25.3862C16.6698 25.5564 15.6482 25.4676 15.5002 25.9266C15.3817 26.2819 15.6778 26.6964 16.0036 26.8223C16.4921 27.0148 17.2176 26.8889 17.6099 27.0962C17.832 27.2146 17.8542 27.4367 18.1651 27.2072C18.2836 27.1184 18.365 27.0222 18.3428 26.8667C18.3206 26.7112 18.0763 26.467 18.2318 26.3485C18.402 26.2967 18.6833 26.7853 18.7055 26.9333C18.7574 27.3109 18.4539 27.6144 18.1133 27.718C17.647 27.8661 17.6396 27.4737 17.262 27.4145C16.729 27.3331 16.233 27.4885 15.6927 27.2072C14.8636 26.7705 14.6415 25.5416 15.6927 25.1937C15.9814 25.0975 16.6698 25.0531 16.8697 24.9124C17.0103 24.8162 17.3509 24.335 17.4471 24.1721C17.9135 23.3652 18.1577 22.2474 18.1059 21.3147C18.0837 20.9742 17.9801 20.5818 17.9653 20.2487C17.9653 20.2043 17.9357 20.0636 18.0171 20.0859C18.3946 20.4782 18.5057 21.2333 18.5353 21.7737C18.5945 22.8767 18.18 24.261 17.4175 25.0827L17.4101 25.0901Z" fill="#020201"/>
<path d="M36.2201 25.7045C36.1239 25.7267 36.1609 25.6823 36.1313 25.6305C36.0277 25.4602 35.7612 25.1789 35.5983 25.0605C35.0135 24.6237 34.0882 25.1567 33.9845 25.8304C33.8587 26.6298 33.9845 27.3775 34.4879 28.0216C34.599 28.1696 34.747 28.288 34.9469 28.2954C34.9469 28.3621 34.9617 28.3695 34.8951 28.3695C34.6878 28.3695 34.4361 28.3103 34.2658 28.1918C33.8439 27.8883 33.3479 26.8445 33.3479 26.3263C33.3479 25.8082 33.4886 24.942 34.0289 24.5127C34.3843 24.2314 34.636 24.187 35.0727 24.3128C35.776 24.5127 36.1017 25.0013 36.2275 25.6971L36.2201 25.7045Z" fill="#020201"/>
<path d="M26.9373 20.4931C27.3888 20.8558 27.722 21.559 27.7294 22.129C27.7294 22.2031 27.7072 22.3289 27.6109 22.2845C27.5739 22.2697 27.3296 21.7367 27.263 21.6331C27.0039 21.2407 26.7004 21.0038 26.271 20.8114C26.0268 20.7003 25.0644 20.419 24.9682 20.271C24.8571 20.1155 24.8867 19.8564 25.094 19.8046C25.5382 19.701 26.582 20.2044 26.9373 20.4857V20.4931Z" fill="#020201"/>
<path d="M13.568 18.0798C13.7901 17.7763 14.2491 17.4432 14.6192 17.3395C15.0634 17.2137 16.2034 17.1471 16.5957 17.3839C16.8326 17.5246 16.8178 17.8355 16.5439 17.9169C16.2256 18.0132 15.5445 17.8429 15.167 17.8503C14.486 17.8651 13.8419 18.1982 13.3904 18.7016L13.3089 18.6424C13.2719 18.5166 13.4866 18.1834 13.568 18.0724V18.0798Z" fill="#020201"/>
<path d="M35.9389 33.5957C35.8871 33.655 35.7243 33.3292 35.6873 33.2922C35.5096 33.0998 35.1765 33.0183 34.947 33.1516C34.8433 33.2108 34.4732 33.5365 34.3992 33.6328C33.955 34.1806 33.6959 35.365 34.2141 35.935L34.5176 36.2163C34.0735 36.2459 33.6885 35.9794 33.5701 35.5501C33.3036 34.6025 34.2363 32.626 35.3541 32.737C35.7983 32.7815 35.9389 33.196 35.9463 33.5883L35.9389 33.5957Z" fill="#020201"/>
<path d="M22.999 21.8995C21.5777 22.3659 20.6893 23.9057 20.941 25.3788H20.8374C20.1785 24.0019 20.9558 22.3585 22.3771 21.8995C22.5252 21.8551 22.9768 21.6849 22.999 21.8995Z" fill="#020201"/>
<path d="M17.136 21.0927C17.247 21.1593 17.4839 21.944 17.4987 22.0994C17.5654 23.1432 16.6548 24.4831 15.5814 24.6386C15.574 24.5719 15.5814 24.5645 15.6185 24.5127C15.6851 24.4313 15.8998 24.3202 15.996 24.2314C16.6696 23.6022 17.1878 22.6472 17.1064 21.7071C17.099 21.5887 16.9879 21.1963 17.0027 21.1445C17.0176 21.0927 17.0916 21.0705 17.136 21.0927Z" fill="#020201"/>
<path d="M20.9633 28.3473C21.4889 28.7766 21.7776 28.9617 22.4882 29.0431C23.1397 29.1172 23.7023 28.9691 24.1612 29.5391C24.3389 29.7612 24.4351 30.0721 24.3759 30.3608L24.2501 30.3978C24.2501 29.9092 23.8429 29.4503 23.3395 29.4355C22.7103 29.4207 22.466 29.5317 21.822 29.2874C21.3334 29.1023 20.8152 28.7322 20.6968 28.1918C20.7412 28.1474 20.9263 28.3103 20.9707 28.3473H20.9633Z" fill="#020201"/>
<path d="M11.5618 21.1964C11.5618 21.3888 11.473 21.5591 11.4582 21.7442C11.3694 22.8101 11.895 23.7725 12.8129 24.2981C12.9313 24.3647 13.1534 24.3721 13.1608 24.535C12.8795 24.5646 12.6056 24.535 12.3465 24.4091C11.4508 23.9353 10.9104 22.9212 11.1473 21.907C11.1621 21.8478 11.4434 21.0631 11.5618 21.1964Z" fill="#020201"/>
<path d="M22.3993 27.4812C22.7768 27.5626 23.1321 27.7403 23.5245 27.7995C24.3758 27.9179 25.1309 27.8217 25.8193 27.3035C25.8785 27.2591 26.1969 26.8741 26.2339 27.074C26.2561 27.1925 25.7305 27.7773 25.6046 27.8661C24.8051 28.4583 23.332 28.3769 22.5917 27.7254C22.5621 27.7032 22.3549 27.5108 22.3993 27.4812Z" fill="#020201"/>
<path d="M26.767 42.516C26.308 42.405 26.2118 42.1089 26.5005 41.7313C26.9225 41.1761 27.7145 40.8282 28.3956 40.7097C28.9656 40.6135 29.58 40.6431 29.1284 41.376C29.0396 41.3982 29.0322 41.1909 28.9434 41.1317C28.5436 40.8504 27.6035 41.3538 27.2334 41.5833C27.1075 41.6573 26.693 41.9534 26.6486 42.0644C26.6189 42.1385 26.6041 42.2347 26.6263 42.3161C26.6486 42.3976 26.7744 42.4198 26.7596 42.516H26.767Z" fill="#020201"/>
<path d="M33.4811 18.3833C33.1998 18.2945 32.8519 18.3685 32.8741 18.7165C32.9111 19.2569 33.4293 19.8417 33.9105 20.0638C33.9919 20.1008 34.177 20.0638 34.1548 20.1896C33.3849 20.3747 32.7779 19.7973 32.4892 19.131C32.2745 18.6202 32.1931 17.9096 32.9778 18.0724C33.0296 18.0798 33.57 18.2871 33.4737 18.3759L33.4811 18.3833Z" fill="#020201"/>
<path d="M26.0933 27.9402L26.1155 27.8291C26.1451 27.8217 26.1895 27.8143 26.2117 27.7995C26.9298 27.1851 27.3369 26.3042 27.5368 25.3863L27.6404 25.3492C27.7885 25.3937 27.707 26.0081 27.6774 26.1339C27.5516 26.7409 27.2111 27.3554 26.7151 27.7329C26.5522 27.8587 26.3005 28.0438 26.0933 27.9476V27.9402Z" fill="#020201"/>
<path d="M13.6938 19.0644C13.6049 18.9756 13.9232 18.8201 13.9825 18.7979C14.7672 18.4796 15.7591 18.8497 16.2773 19.4937C16.3217 19.5456 16.4179 19.6566 16.4031 19.7232C16.3735 19.8565 16.0996 19.627 16.033 19.59C15.2779 19.205 14.5673 18.9459 13.7012 19.0644H13.6938Z" fill="#020201"/>
<path d="M26.6782 22.9729C26.8041 22.9507 27.189 23.4171 27.2482 23.5355C27.6258 24.2166 27.5147 25.1641 27.0632 25.7785C27.0114 25.7934 26.9818 25.7341 26.9744 25.6897C26.9595 25.5787 27.041 25.2678 27.0484 25.1271C27.078 24.4831 27.0484 23.8613 26.7671 23.269C26.7375 23.2172 26.5376 23.0025 26.6708 22.9729H26.6782Z" fill="#020201"/>
<path d="M15.4483 34.3656C15.4038 34.3138 15.1818 34.0029 15.167 33.9511C15.1077 33.7734 15.1225 33.6772 15.315 33.766C15.811 33.9955 16.1811 34.41 16.84 34.3656C16.9066 34.3656 17.1287 34.1806 17.1361 34.4545C17.1361 34.6395 16.9658 34.6913 16.8178 34.7432C16.6401 34.8098 16.3514 34.8542 16.1589 34.832C15.9516 34.8024 15.5815 34.5137 15.4409 34.3582L15.4483 34.3656Z" fill="#020201"/>
<path d="M14.5674 26.7927C14.4564 26.9112 14.1159 27.0888 13.953 27.0888C13.7457 27.0888 13.4644 26.7705 13.2053 26.7335C12.9166 26.6965 12.7168 26.8445 12.4429 26.8741C12.4873 26.6003 12.8944 26.4522 13.1387 26.4448C13.5755 26.43 13.8272 26.9112 14.3454 26.6595C14.5008 26.5854 14.6341 26.3189 14.7229 26.5706C14.6415 26.6225 14.6193 26.7483 14.5748 26.7927H14.5674Z" fill="#020201"/>
<path d="M30.5941 39.1774C30.9198 39.1107 30.979 39.4216 30.8754 39.6733C30.7718 39.925 30.1722 40.31 30.0241 39.9398C29.9131 39.6585 30.3276 39.2292 30.5941 39.1774Z" fill="#020201"/>
<path d="M36.3535 30.5089C36.9309 30.4053 36.731 32.0412 36.1092 31.5157C35.8945 31.3306 36.1092 30.5533 36.3535 30.5089Z" fill="#020201"/>
<path d="M33.9697 21.2333C34.0733 21.2111 34.1695 21.2629 34.2435 21.337C34.2658 21.3592 34.4878 21.7071 34.4952 21.7219C34.5619 21.944 34.436 22.2623 34.1843 22.2179C33.7772 22.1365 33.5551 21.3222 33.9697 21.2333Z" fill="#020201"/>
<path d="M22.9547 42.3828C23.1472 42.3458 23.4729 42.331 23.5247 42.5752C23.5987 42.9158 23.0139 43.1453 22.7474 42.9898C22.3847 42.7825 22.6068 42.442 22.9473 42.3754L22.9547 42.3828Z" fill="#020201"/>
<path d="M25.4789 40.0732C25.8121 39.9843 25.9675 40.3471 25.6788 40.5913C25.6196 40.6432 25.3827 40.7764 25.3087 40.7986C25.094 40.8578 24.7461 40.5321 25.0274 40.3026C25.057 40.273 25.4345 40.088 25.4789 40.0806V40.0732Z" fill="#020201"/>
<path d="M36.4127 28.1474C36.2202 27.9254 36.3535 27.2073 36.7236 27.3184C37.1678 27.459 36.842 28.6286 36.4127 28.1474Z" fill="#020201"/>
<path d="M35.3912 22.1957C35.8501 22.0921 36.0426 22.936 35.7317 23.0322C35.2209 23.1876 35.058 22.2697 35.3912 22.1957Z" fill="#020201"/>
<path d="M32.4448 38.6147C32.5484 38.6147 32.7039 38.7702 32.7039 38.8738C32.7039 38.9775 32.3116 39.4438 32.1857 39.4587C32.0229 39.4809 31.823 39.318 31.8748 39.1477C31.8896 39.0959 32.1265 38.7554 32.1709 38.7258C32.2227 38.6888 32.3856 38.6147 32.4448 38.6147Z" fill="#020201"/>
<path d="M30.5941 16.9027C30.9643 16.8287 31.3862 17.5986 30.9347 17.7096C30.5571 17.7984 30.1426 16.9989 30.5941 16.9027Z" fill="#020201"/>
<path d="M32.319 37.497C32.0377 37.2157 32.5781 36.6753 32.8965 36.8678C32.9409 36.8974 33.0445 37.0603 33.0445 37.1047C33.0593 37.312 32.5781 37.7561 32.319 37.497Z" fill="#020201"/>
<path d="M24.7311 14.0971C24.8274 14.2155 24.7755 14.371 24.6497 14.4376C24.3906 14.5709 23.5023 14.4228 23.8502 14.0305C23.9687 13.8972 24.4054 13.9712 24.5757 14.0157C24.6201 14.0305 24.7015 14.0601 24.7311 14.0897V14.0971Z" fill="#020201"/>
<path d="M26.0415 14.9855C26.2118 14.9707 26.7448 15.1483 26.73 15.3852C26.693 15.896 25.5974 15.5111 25.8935 15.0891C25.9231 15.0447 25.9897 15.0003 26.0415 14.9929V14.9855Z" fill="#020201"/>
<path d="M35.4504 29.6945C35.6355 29.465 35.9538 29.6131 35.976 29.9166C36.0204 30.5754 35.3616 30.4792 35.369 30.0647C35.369 29.998 35.4134 29.7389 35.4504 29.6945Z" fill="#020201"/>
<path d="M8.00118 30.1535C8.20105 30.1017 8.39352 30.4348 8.40093 30.5976C8.40093 30.6791 8.23807 30.9826 8.16404 30.9974C7.87534 31.0566 7.66806 30.2497 8.00118 30.1535Z" fill="#020201"/>
<path d="M19.2385 30.8939C19.2903 30.9531 19.0905 31.0641 19.0609 31.0863C18.3724 31.5453 16.8549 31.686 16.122 31.2936C15.7149 31.0715 15.1597 30.2942 15.1152 29.8279L19.2385 30.8939Z" fill="#FCFCFC"/>
<path d="M23.5987 22.7286C25.8935 22.4177 26.9595 25.2826 25.0866 26.4966C23.4062 27.5922 21.3261 25.8526 22.0589 24.0019C22.2958 23.3949 22.9325 22.8175 23.5987 22.7286Z" fill="#FCFCFC"/>
<path d="M13.1017 23.4542C11.1548 21.7737 13.6198 18.8719 15.5519 20.4117C17.6395 22.0699 15.0263 25.1124 13.1017 23.4542Z" fill="#FCFCFC"/>
<path d="M24.0057 25.3789C23.717 25.0606 23.9539 24.4609 24.4055 24.4609C25.1901 24.4609 25.1161 25.6158 24.3684 25.5713C24.2796 25.5713 24.0649 25.4455 24.0057 25.3789Z" fill="#020201"/>
<path d="M14.5673 21.6257C15.204 21.485 15.5593 22.2919 15.0263 22.6176C14.4489 22.973 13.8789 22.1883 14.3453 21.7589C14.3897 21.7219 14.5155 21.6331 14.5673 21.6257Z" fill="#020201"/>
</svg>
