<svg width="48" height="48" viewBox="0 0 48 48" fill="none" xmlns="http://www.w3.org/2000/svg" part="icon" aria-hidden="true">
<path d="M26.9242 1.69751C27.0067 1.72501 27.0892 1.76168 27.1717 1.78001C27.5384 1.89001 27.8959 2.02751 28.2259 2.21084C28.4459 2.33001 28.6659 2.42168 28.9042 2.46751C29.8942 2.68751 30.8476 3.00834 31.8009 3.34751C32.0209 3.42084 32.2409 3.49418 32.4517 3.60418C32.7909 3.76918 33.1576 3.86084 33.5242 3.95251C33.9001 4.04418 34.2392 4.20001 34.5509 4.42918C35.0917 4.82334 35.6692 5.19001 36.2192 5.57501C36.4759 5.75834 36.7234 5.96918 36.9709 6.16168C37.0259 6.20751 37.0809 6.26251 37.1267 6.33584C37.0717 6.33584 37.0167 6.32668 36.9709 6.31751C36.4667 6.22584 35.9901 6.07001 35.5134 5.88668C35.4217 5.85001 35.3392 5.82251 35.2476 5.85918C35.2017 5.87751 35.1376 5.87751 35.0917 5.88668C34.9542 5.90501 34.8167 5.89584 34.7067 5.80418C34.6701 5.76751 34.6151 5.74918 34.5692 5.72168C34.4592 5.64834 34.3401 5.62084 34.2117 5.63918C33.9276 5.66668 33.6617 5.59334 33.3959 5.48334C33.3134 5.44668 33.2309 5.41918 33.1576 5.38251C33.0567 5.46501 33.0109 5.57501 32.9651 5.68501C32.8826 5.90501 32.7084 6.06084 32.5617 6.27168C32.4701 6.09751 32.3876 5.95084 32.2959 5.79501C32.2592 5.79501 32.2226 5.79501 32.1859 5.79501C31.6084 5.79501 31.0217 5.79501 30.4442 5.79501C30.3526 5.79501 30.2609 5.81334 30.1784 5.84084C30.0134 5.89584 29.8576 5.96001 29.7017 6.02418C29.5734 6.07918 29.4817 6.17084 29.4542 6.30834C29.4359 6.39084 29.3809 6.45501 29.3351 6.51918C29.2342 6.66584 29.1426 6.81251 29.0601 6.96834C29.0051 7.07834 28.9501 7.19751 28.9134 7.31668C28.8767 7.42668 28.8034 7.50001 28.7026 7.54584C28.4276 7.66501 28.1526 7.78418 27.8867 7.90334C27.7676 7.95834 27.6576 8.00418 27.5384 8.05001C27.4559 8.07751 27.4101 8.13251 27.4101 8.22418C27.4101 8.32501 27.3734 8.42584 27.3642 8.52668C27.3642 8.58168 27.3367 8.61834 27.2909 8.64584C27.0342 8.82918 26.7867 9.01251 26.5301 9.19584C26.3284 9.34251 26.1634 9.32418 25.9709 9.15001C25.8976 9.08584 25.8242 9.01251 25.7509 8.93918C25.6867 8.87501 25.6134 8.86584 25.5401 8.92084C25.5126 8.93918 25.4759 8.95751 25.4484 8.97584C25.2376 9.14084 24.9992 9.15918 24.7517 9.11334C24.5867 9.08584 24.4126 9.05834 24.2476 9.03084C24.2201 9.03084 24.2017 9.03084 24.1742 9.03084C24.1467 9.21418 24.1742 9.38834 24.2109 9.56251C24.2384 9.76418 24.2751 9.96584 24.3117 10.1675C24.3301 10.2592 24.3117 10.3233 24.2384 10.3875C24.0917 10.5067 23.9634 10.6533 23.8167 10.7725C23.5509 10.9833 23.2392 11.075 22.9001 11.0383C22.8451 11.0383 22.7809 11.0383 22.7259 11.0658C22.5609 11.1208 22.4051 11.2125 22.2676 11.3317C22.1392 11.4417 22.0292 11.5608 21.9009 11.6708C21.8001 11.7625 21.7634 11.8725 21.7634 12.0008C21.7634 12.0833 21.7634 12.1658 21.7634 12.2483C21.7634 12.34 21.7267 12.4042 21.6534 12.4592C21.3784 12.6792 21.1034 12.8992 20.8284 13.11C20.7001 13.2017 20.6176 13.3117 20.6176 13.4675C20.6176 13.5317 20.5717 13.5592 20.5259 13.5867C20.3517 13.6783 20.1867 13.77 20.0126 13.8708C19.7651 14.0083 19.5267 14.1367 19.2792 14.2742C19.2059 14.3108 19.1692 14.3658 19.1509 14.4392C19.1051 14.6225 19.0409 14.8058 18.9767 14.9983C18.9309 14.9892 18.8851 14.98 18.8576 14.9617C18.8209 14.9342 18.7659 14.9067 18.7476 14.87C18.6651 14.6683 18.5092 14.5858 18.2984 14.6133C18.2617 14.6133 18.2159 14.6042 18.1701 14.5858C18.0417 14.5308 18.0142 14.4758 18.0692 14.3475C18.3259 13.66 18.5826 12.9633 18.8392 12.2758C18.9217 12.065 18.9859 11.8542 19.0684 11.6433C19.1692 11.3867 19.2792 11.1392 19.3801 10.8825C19.4076 10.8092 19.4442 10.7358 19.4534 10.6625C19.4626 10.5433 19.3709 10.4792 19.2609 10.5342C18.8851 10.7175 18.5092 10.9008 18.1334 11.0842C18.0326 11.13 17.9501 11.2033 17.8859 11.3042C17.8492 11.3683 17.7942 11.4233 17.7484 11.4783C17.7301 11.4783 17.7209 11.4783 17.7209 11.4783C17.5376 11.3408 17.3817 11.405 17.2351 11.5333C17.0151 11.7167 16.7492 11.8175 16.4926 11.9367C16.4651 11.955 16.4284 11.955 16.3917 11.955C16.2726 11.9642 16.1534 11.9642 16.0434 11.9917C15.9059 12.0192 15.7776 12.0283 15.6401 11.9917C15.6309 11.9917 15.6217 11.9917 15.6126 11.9917C15.4842 11.955 15.4201 11.9642 15.3926 12.0375C15.3559 12.1292 15.4109 12.2025 15.4659 12.2575C15.5576 12.3492 15.6309 12.4408 15.6492 12.5783C15.6584 12.6425 15.7226 12.7158 15.7776 12.7617C16.0159 12.9633 16.2726 13.1467 16.5109 13.3483C16.5751 13.4033 16.6301 13.4217 16.7217 13.4033C17.0334 13.33 17.3542 13.275 17.6659 13.22C17.7667 13.2017 17.8309 13.1558 17.8767 13.055C17.9317 12.9267 17.9867 12.7983 18.0509 12.67C18.0967 12.5692 18.1609 12.4683 18.2251 12.3675C18.2251 12.4958 17.7209 13.9167 17.6017 14.1367C17.5559 14.1183 17.5101 14.1 17.4551 14.0817C16.5384 13.66 15.6309 13.2383 14.7142 12.8167C14.6134 12.7708 14.5034 12.7342 14.4026 12.6975C14.3017 12.67 14.2192 12.6975 14.1551 12.7892C14.1367 12.8167 14.1184 12.8808 14.1276 12.9083C14.2467 13.1742 14.2101 13.4583 14.1917 13.7333C14.1642 14.0908 14.1001 14.4392 13.9901 14.7783C13.9717 14.8517 13.9351 14.9067 13.8801 14.9617C13.7242 15.1083 13.6784 15.1908 13.6417 15.3558C13.7334 15.42 13.8434 15.4292 13.9534 15.4292C14.4576 15.4292 14.9526 15.4933 15.4384 15.64C15.7776 15.7408 16.0984 15.8875 16.3917 16.08C16.4284 16.0983 16.4559 16.1258 16.4926 16.1442C16.4926 16.1442 16.5017 16.1625 16.5201 16.1808C16.4009 16.2908 16.2451 16.3367 16.0984 16.4008C16.0617 16.41 16.0159 16.3917 15.9701 16.3733C15.4017 16.1992 14.8334 16.025 14.2559 15.86C13.7792 15.7225 13.2934 15.64 12.7984 15.6033C12.7617 15.6033 12.7159 15.6033 12.6884 15.5758C12.5692 15.5025 12.4592 15.5208 12.3401 15.5758C12.1842 15.6308 12.0284 15.6858 11.8726 15.75C11.7351 15.805 11.7076 15.8967 11.7992 16.0067C11.8176 16.0342 11.8359 16.0525 11.8634 16.0708C12.0101 16.1533 12.1567 16.2542 12.3126 16.3183C12.5051 16.3917 12.6609 16.5108 12.7984 16.6667C12.9267 16.8225 13.0367 16.9875 13.1284 17.18C13.0276 17.29 12.9267 17.4092 12.8259 17.5192C12.6609 17.5375 12.6334 17.7025 12.5234 17.785C12.4134 17.8767 12.3217 17.9775 12.2209 18.0875C12.1842 18.1333 12.1476 18.1792 12.1292 18.2342C12.0926 18.335 12.0376 18.39 11.9459 18.4267C11.9001 18.445 11.8542 18.4817 11.7992 18.5C11.6434 18.5458 11.5884 18.6467 11.5701 18.7933C11.5609 18.8758 11.5334 18.9675 11.4967 19.0408C11.4417 19.16 11.3501 19.2242 11.2217 19.2242C11.1026 19.2242 11.0201 19.2792 10.9651 19.3892C10.9284 19.4717 10.8734 19.5267 10.7726 19.5542C10.7084 19.5725 10.6534 19.6183 10.5984 19.655C10.4976 19.7192 10.4059 19.7925 10.3142 19.8567C10.1126 19.985 9.90174 20.1225 9.69091 20.2417C9.50757 20.3425 9.31507 20.4433 9.11341 20.5258C9.02174 20.5625 8.96674 20.6083 8.95757 20.7092C8.95757 20.7367 8.93924 20.755 8.93007 20.7917C8.80174 20.7367 8.77424 20.59 8.64591 20.5258C8.57257 20.5808 8.49924 20.6358 8.42591 20.7C8.36174 20.755 8.30674 20.7733 8.22424 20.755C8.02257 20.7092 7.95841 20.7458 7.85757 20.9567C7.92174 21.0483 7.99507 21.14 8.06841 21.2317C8.15091 21.3325 8.16924 21.4333 8.10507 21.5617C7.97674 21.8367 7.86674 22.1208 7.73841 22.4233C7.69257 22.4233 7.61007 22.4233 7.53674 22.4233C7.41757 22.405 7.34424 22.46 7.28007 22.5517C7.23424 22.6158 7.18841 22.68 7.14257 22.7442C7.12424 22.7717 7.09674 22.79 7.05091 22.8267C6.98674 22.13 6.91341 21.4608 6.84924 20.7458C6.64757 20.9842 6.56507 21.2867 6.30841 21.4333C6.22591 21.4058 6.20757 21.3417 6.20757 21.2775C6.21674 21.0758 6.15257 20.8833 6.12507 20.6817C6.10674 20.5167 6.09757 20.3517 6.16174 20.1867C6.27174 19.9117 6.38174 19.6275 6.49174 19.3617C6.53757 19.2608 6.54674 19.16 6.51924 19.05C6.36341 18.3717 6.20757 17.6842 6.07007 17.0058C5.98757 16.5842 5.94174 16.1533 5.87757 15.7317C5.86841 15.64 5.87757 15.5575 5.91424 15.475C6.03341 15.1725 6.19841 14.9067 6.39091 14.65C6.46424 14.5583 6.51924 14.4575 6.55591 14.3383C6.64757 14.0633 6.73924 13.7792 6.83091 13.5042C6.84007 13.4675 6.86757 13.44 6.89507 13.4125C7.05091 13.275 7.20674 13.1375 7.37174 13C7.51841 12.8717 7.68341 12.7617 7.83007 12.6333C7.87591 12.5967 7.91257 12.5508 7.94007 12.505C7.97674 12.4317 8.03174 12.3858 8.11424 12.395C8.30674 12.4225 8.46257 12.3217 8.60924 12.2208C9.41591 11.6892 10.2317 11.1575 11.0384 10.6258C11.1851 10.5342 11.3317 10.4792 11.4967 10.4517C11.6709 10.4242 11.8451 10.3875 12.0192 10.36C12.1201 10.3417 12.2026 10.305 12.2759 10.2408C12.4409 10.0942 12.6059 9.94751 12.7709 9.80084C12.8351 9.74584 12.9176 9.70001 12.9909 9.66334C13.7517 9.38834 14.5126 9.11334 15.2734 8.83834C15.4109 8.78334 15.5576 8.78334 15.7042 8.79251C15.8967 8.79251 16.0892 8.81084 16.2726 8.81084C16.4192 8.81084 16.5567 8.76501 16.6942 8.69168C16.9601 8.54501 17.2351 8.39834 17.5101 8.26084C17.5742 8.23334 17.6384 8.20584 17.6934 8.16918C18.0326 7.94918 18.4176 7.83918 18.8026 7.72918C19.5726 7.50001 20.3426 7.27084 21.1126 7.03251C21.2501 6.99584 21.3876 6.95918 21.5251 6.92251C21.5434 6.92251 21.5617 6.90418 21.5892 6.88584C21.5526 6.79418 21.4792 6.80334 21.4151 6.80334C21.2042 6.82168 20.9934 6.84918 20.7917 6.87668C20.0126 6.98668 19.2334 7.15168 18.4634 7.32584C18.3717 7.34418 18.2801 7.34418 18.1976 7.30751C18.0876 7.26168 17.9776 7.23418 17.8676 7.18834C17.7759 7.15168 17.6842 7.17001 17.6109 7.24334C17.5284 7.32584 17.4459 7.40834 17.3542 7.48168C17.2442 7.57334 17.1251 7.66501 17.0059 7.74751C16.9326 7.79334 16.8501 7.79334 16.7676 7.76584C16.5751 7.69251 16.3917 7.72918 16.2359 7.85751C16.0984 7.96751 15.9792 8.08668 15.8417 8.18751C15.7501 8.26084 15.6584 8.32501 15.5576 8.38918C15.4201 8.48084 15.2642 8.50834 15.0992 8.49001C14.8242 8.46251 14.5492 8.45334 14.2834 8.44418C14.1276 8.44418 13.9717 8.41668 13.8251 8.36168C13.5684 8.27918 13.3026 8.19668 13.0367 8.14168C12.8901 8.11418 12.7342 8.11418 12.5876 8.13251C12.3217 8.16918 12.1292 8.32501 12.0284 8.57251C12.0009 8.63668 11.9826 8.70084 11.9642 8.76501C11.8817 8.77418 11.7992 8.78334 11.7259 8.80168C11.4876 8.83834 11.3134 8.96668 11.1667 9.15001C11.1484 9.17751 11.1301 9.21418 11.1209 9.25084C11.0934 9.41584 11.0109 9.54418 10.9009 9.65418C10.8459 9.70918 10.7909 9.75501 10.7451 9.81001C10.6809 9.90168 10.5984 9.92001 10.4884 9.91084C10.2592 9.90168 10.0301 9.90168 9.80091 9.88334C9.70924 9.88334 9.64507 9.91084 9.59007 9.98418C9.51674 10.1033 9.44341 10.2225 9.35174 10.36C9.16841 10.2683 8.98507 10.1767 8.78341 10.0758C8.83841 9.99334 8.87507 9.91084 8.93007 9.85584C9.24174 9.53501 9.48007 9.15918 9.74591 8.80168C10.0392 8.40751 10.3509 8.04084 10.6626 7.65584C10.7267 7.57334 10.7909 7.49084 10.8551 7.41751C10.9834 7.27084 11.0751 7.11501 11.1026 6.91334C11.1209 6.75751 11.2034 6.63834 11.3317 6.55584C11.4876 6.44584 11.6342 6.32668 11.7992 6.23501C12.8809 5.63001 13.9626 5.02501 15.0534 4.42918C15.4751 4.20001 15.9242 4.01668 16.3642 3.80584C16.4651 3.76001 16.5659 3.75084 16.6667 3.77834C16.7951 3.81501 16.9234 3.86084 17.0517 3.90668C17.2076 3.96168 17.3451 3.98001 17.5009 3.90668C17.8951 3.74168 18.2892 3.59501 18.6926 3.44834C18.7751 3.41168 18.8209 3.36584 18.8484 3.27418C18.8851 3.14584 18.9309 3.02668 18.9859 2.90751C19.0134 2.83418 19.0592 2.77918 19.1509 2.76084C19.4442 2.69668 19.7376 2.62334 20.0309 2.55918C20.6542 2.41251 21.2867 2.29334 21.9192 2.21084C22.4326 2.13751 22.9551 2.07334 23.4776 2.01834C23.7434 1.99084 24.0092 1.98168 24.2842 1.95418C24.6051 1.92668 24.9259 1.89001 25.2467 1.85334C25.4576 1.83501 25.6684 1.81668 25.8701 1.79834C25.9526 1.79834 26.0351 1.78001 26.1176 1.77084C26.4109 1.77084 26.7042 1.77084 26.9976 1.77084L26.9242 1.69751Z" fill="#16FFA7"></path>
<path d="M39.4825 11.3409C39.29 11.3409 39.1159 11.3409 38.9325 11.3409C38.8134 11.3409 38.6942 11.3225 38.5842 11.3134C38.5292 11.3134 38.4834 11.3134 38.4192 11.3317C38.4192 11.4417 38.5017 11.4692 38.575 11.4967C38.9142 11.6525 39.2534 11.7992 39.5925 11.9459C39.8034 12.0375 40.005 12.1475 40.225 12.2209C40.3534 12.2667 40.3992 12.3492 40.4267 12.4684C40.5367 12.9175 40.6467 13.3575 40.775 13.7975C40.885 14.1917 41.0592 14.5492 41.2884 14.8975C41.5542 15.2917 41.8017 15.7042 42.0767 16.0984C42.2509 16.3459 42.4525 16.575 42.645 16.8042C42.6909 16.8592 42.7092 16.905 42.7092 16.9784C42.7092 17.2992 42.6542 17.62 42.6084 17.9409C42.5809 18.1517 42.5625 18.3625 42.535 18.5642C42.4984 18.8025 42.4709 19.05 42.3975 19.2792C42.2784 19.655 42.2325 20.0309 42.205 20.4159C42.1775 20.8559 42.15 21.2959 42.1134 21.7359C42.1134 21.855 42.0767 21.965 42.04 22.075C41.9025 22.4692 41.7467 22.8634 41.6642 23.2759C41.655 23.3309 41.6092 23.3767 41.5725 23.4134C41.4075 23.5875 41.2242 23.7434 41.0592 23.9175C40.885 24.1009 40.7659 24.3209 40.6834 24.5592C40.6192 24.7425 40.61 24.9259 40.6742 25.1C40.7384 25.2834 40.8025 25.4575 40.8759 25.6317C40.9675 25.8792 41.0684 26.1359 41.1692 26.3834C41.2517 26.5942 41.3525 26.7959 41.435 26.9975C41.5267 27.2084 41.6092 27.41 41.6917 27.6209C41.7559 27.795 41.8842 27.8775 42.0675 27.8225C42.1592 27.795 42.2234 27.8134 42.2967 27.8684C42.4434 27.9875 42.5992 28.1067 42.7459 28.2167C42.8192 28.2717 42.8467 28.3359 42.8375 28.4275C42.8192 28.7392 42.81 29.0417 42.81 29.3534C42.81 29.4084 42.7917 29.445 42.755 29.4817C42.425 29.8025 42.095 30.1142 41.7284 30.38C41.3342 30.6734 40.9492 30.985 40.6375 31.3792C40.6009 31.425 40.555 31.4525 40.5092 31.4984C40.39 31.5992 40.2617 31.7092 40.1425 31.81C40.0784 31.865 40.0417 31.9384 40.0509 32.03C40.0509 32.085 40.0509 32.14 40.0509 32.195C40.06 32.2684 40.0417 32.3325 39.9775 32.3692C39.9042 32.4242 39.895 32.4975 39.9042 32.58C39.9134 32.6534 39.9225 32.7359 39.9409 32.8092C39.9684 32.9009 39.95 32.965 39.9042 33.0475C39.7209 33.3225 39.5467 33.5884 39.3542 33.8725C39.3542 33.8909 39.3725 33.9275 39.3909 33.9642C39.2534 34.0559 39.235 34.1934 39.2259 34.34C39.2167 34.4684 39.2075 34.5967 39.1892 34.7159C39.1892 34.7709 39.1709 34.8167 39.1525 34.8717C39.0792 35.11 39.0059 35.3484 38.9325 35.5867C38.9234 35.6234 38.905 35.6784 38.8775 35.6967C38.685 35.8525 38.4834 35.9992 38.2817 36.1459C38.2634 36.1275 38.245 36.1275 38.245 36.1092C37.9792 35.7517 37.6309 35.4767 37.2642 35.2384C36.9434 35.0275 36.6134 34.8259 36.2834 34.6242C36.2375 34.5967 36.1917 34.56 36.1459 34.5234C36.1459 34.505 36.1459 34.4959 36.1459 34.4867C36.2467 34.3767 36.21 34.2759 36.1275 34.175C36.045 34.065 35.9625 33.955 35.88 33.8542C35.8342 33.7992 35.8159 33.7442 35.88 33.6892C35.9442 33.6342 35.9167 33.5884 35.88 33.5334C35.8709 33.515 35.8525 33.5059 35.8434 33.4875C35.715 33.3592 35.715 33.3134 35.8434 33.1942C35.9075 33.1392 35.9259 33.075 35.88 33.0109C35.8342 32.9467 35.8434 32.8917 35.88 32.8275C35.88 32.8092 35.8892 32.7909 35.8984 32.7725C35.9717 32.58 36.0084 32.3875 35.9442 32.1767C35.88 31.9842 35.8617 31.7734 35.825 31.5717C35.7884 31.37 35.6875 31.2509 35.4859 31.205C35.2475 31.1592 35.0184 31.0859 34.7892 31.0584C34.6609 31.04 34.5325 31.0859 34.4042 31.1134C34.2392 31.1592 34.0742 31.2325 33.9 31.2784C33.7992 31.3059 33.68 31.2784 33.57 31.2784C33.515 31.2784 33.46 31.2509 33.4234 31.2967C33.3775 31.3609 33.3775 31.425 33.4142 31.4892C33.4509 31.5442 33.4967 31.59 33.5425 31.6267C33.6067 31.6725 33.68 31.7 33.7442 31.7367C33.8542 31.7825 33.9 31.8467 33.8817 31.9659C33.8725 32.0392 33.9 32.0759 33.9367 32.1217C33.9734 32.1675 34.0009 32.2042 34.0284 32.25C34.0375 32.2775 34.0559 32.3325 34.0284 32.3417C33.9734 32.3967 33.9917 32.4517 34.01 32.5159C34.0192 32.5617 34.0284 32.6075 34.01 32.6442C33.9734 32.745 34.01 32.8 34.1109 32.8459C33.9825 33.0109 34.0467 33.1484 34.1475 33.2859C34.175 33.3225 34.1934 33.3592 34.2209 33.3959C34.3034 33.5334 34.3034 33.5517 34.2025 33.68C34.1292 33.7625 34.0467 33.845 33.9734 33.9275C33.9367 33.9734 33.9 34.0192 33.8634 34.065C33.8909 34.1109 33.9184 34.1475 33.9275 34.1842C34.0009 34.3767 33.9092 34.5509 33.7625 34.5784C33.6892 34.5967 33.6617 34.6425 33.6434 34.7067C33.3867 35.385 33.1392 36.0725 32.8825 36.7509C32.855 36.8334 32.8367 36.9067 32.7267 36.925C32.6625 36.9342 32.6259 36.9984 32.6167 37.0625C32.6167 37.1084 32.6075 37.1451 32.5984 37.2001C32.2959 37.2917 31.9934 37.3925 31.6909 37.475C31.5625 37.5117 31.5534 37.4934 31.5259 37.3742C31.5259 37.3467 31.5167 37.3192 31.5075 37.2917C31.48 37.1542 31.4159 37.0442 31.2417 37.035C31.1867 36.8425 31.1225 36.6592 31.0767 36.4759C30.8017 35.44 30.5267 34.4042 30.2517 33.3775C30.1784 33.1117 30.0959 32.8459 30.0225 32.58C30.0042 32.525 29.9767 32.47 29.9584 32.4242C29.8667 32.4242 29.8392 32.4792 29.8117 32.5342C29.61 32.965 29.5 33.4234 29.4725 33.8909C29.4725 34.01 29.5 34.1384 29.5367 34.2484C29.8667 35.1925 30.2059 36.1275 30.5359 37.0625C30.545 37.09 30.5542 37.1175 30.5634 37.1451C30.5909 37.2001 30.5634 37.2367 30.5267 37.2734C30.4992 37.3009 30.4625 37.3192 30.435 37.3467C30.3342 37.4384 30.3342 37.5392 30.435 37.6401C30.4717 37.6767 30.5084 37.7042 30.5542 37.7409C30.4717 37.8509 30.3984 37.9609 30.3067 38.0892C30.38 38.1809 30.4534 38.2634 30.5267 38.3459C30.545 38.3642 30.5634 38.3825 30.5817 38.4009C30.7192 38.5567 30.875 38.6667 31.0859 38.6942C31.1225 38.6942 31.1592 38.7125 31.205 38.7309C31.205 38.7675 31.2142 38.795 31.2234 38.8317C31.2509 39.0059 31.3609 39.125 31.5167 39.2167C31.5442 39.235 31.5809 39.235 31.6175 39.235C31.92 39.1984 32.0759 39.015 32.1767 38.7584C32.1859 38.7309 32.1767 38.685 32.1584 38.6484C32.14 38.6025 32.1125 38.5659 32.0759 38.4925C32.3417 38.5567 32.5709 38.6209 32.8092 38.6759C32.7817 38.7584 32.7542 38.8225 32.7359 38.8959C32.6992 39.0334 32.6717 39.1617 32.7634 39.2901C32.7817 39.3175 32.7817 39.3634 32.7634 39.4C32.6075 39.8492 32.4517 40.2984 32.2867 40.7384C32.1767 41.0317 32.0117 41.2884 31.8192 41.5267C31.7734 41.5817 31.7459 41.6551 31.7367 41.7192C31.6542 42.0859 31.5809 42.4525 31.4984 42.8192C31.4434 43.0484 31.3884 43.2775 31.3334 43.5067C31.2875 43.6992 31.1959 43.8734 31.0584 44.0201C30.8567 44.2217 30.6459 44.4142 30.435 44.6159C30.3892 44.6525 30.3525 44.6617 30.2975 44.6342C30.1967 44.5792 30.0775 44.5334 30.0042 44.4509C29.8575 44.2951 29.72 44.1301 29.5917 43.9559C29.5734 43.9284 29.5642 43.8734 29.5917 43.855C29.6559 43.7542 29.6192 43.6809 29.5459 43.6167C29.335 43.4151 29.1242 43.2134 28.9042 43.0117C28.7759 42.8926 28.6475 42.7826 28.5284 42.6634C28.4917 42.6267 28.4642 42.59 28.4275 42.5534C28.4642 42.4892 28.4917 42.425 28.5284 42.3517C28.4734 42.2967 28.4184 42.2417 28.3542 42.1959C28.2625 42.1317 28.2075 42.0492 28.1617 41.9484C28.0792 41.7284 27.9875 41.5175 27.8959 41.2976C27.8959 41.2792 27.8775 41.2517 27.8775 41.2334C27.96 41.1692 28.0425 41.105 28.1159 41.0409C28.07 40.9125 27.9784 40.8392 27.8867 40.7842C27.7767 40.7201 27.6667 40.6651 27.5567 40.6009C27.4009 40.5092 27.3 40.3809 27.2725 40.1975C27.2725 40.1609 27.2725 40.1334 27.2725 40.0784C27.3367 40.0967 27.3917 40.1059 27.4467 40.1242C27.575 40.17 27.7034 40.225 27.8317 40.2709C27.9967 40.335 28.1709 40.3717 28.345 40.3534C28.5009 40.335 28.5284 40.2892 28.4825 40.1426C28.4367 40.0051 28.345 39.9042 28.2534 39.7942C28.015 39.5192 27.7859 39.2351 27.5567 38.9509C27.52 38.9051 27.5017 38.85 27.4742 38.8042C27.5292 38.7126 27.6117 38.7125 27.685 38.6942C27.7492 38.6759 27.8225 38.6667 27.8867 38.6484C27.9325 38.63 27.9784 38.6117 28.015 38.5751C28.0975 38.4925 28.0609 38.3825 27.9417 38.355C27.8684 38.3459 27.795 38.3367 27.7217 38.3276C27.74 38.2267 27.8225 38.1992 27.8867 38.1625C27.9692 38.1259 28.0609 38.1075 28.1434 38.0709C28.2075 38.0434 28.2625 38.0067 28.3084 37.9517C28.3634 37.8967 28.3359 37.8417 28.2625 37.8234C28.2167 37.8234 28.1617 37.8234 28.1159 37.8234C27.795 37.8876 27.4742 37.8784 27.1534 37.805C26.9242 37.7501 26.7592 37.805 26.64 38.0067C26.6309 38.025 26.6125 38.0342 26.6034 38.0526C26.5392 38.1717 26.4384 38.2176 26.3009 38.2267C26.1542 38.2451 26.0075 38.2725 25.87 38.3184C25.6042 38.3917 25.4392 38.5659 25.3842 38.85C25.3017 39.2534 25.1184 39.62 24.9259 39.9684C24.8525 40.1059 24.8067 40.2525 24.6875 40.3625C24.6325 40.4175 24.6692 40.4909 24.7517 40.4909C24.8525 40.4909 24.9534 40.4909 25.0542 40.4542C25.1642 40.4267 25.2742 40.3625 25.3659 40.3259C25.4209 40.445 25.4759 40.5642 25.54 40.7109C25.4484 40.8484 25.3384 41.0134 25.2192 41.1784C25.2375 41.2059 25.265 41.2425 25.3017 41.3067C25.2375 41.3342 25.1642 41.3617 25.1 41.38C25.0084 41.4167 24.9442 41.4625 24.935 41.5725C24.9075 41.765 24.8159 41.9392 24.7242 42.1134C24.6417 42.26 24.5684 42.4159 24.495 42.5717C24.4492 42.6634 24.4675 42.7459 24.5225 42.8192C24.5775 42.8925 24.6417 42.9659 24.6967 43.0392C24.7792 43.1309 24.8159 43.2317 24.825 43.3601C24.8709 43.8642 24.8709 43.7909 24.6417 44.2034C24.5775 44.3226 24.5409 44.4417 24.5592 44.5792C24.5775 44.7901 24.5959 45.0009 24.605 45.2209C24.4217 45.3034 24.2475 45.3859 24.0642 45.4592C24.0275 45.4776 23.9725 45.4592 23.9267 45.4409C23.7067 45.3951 23.4867 45.34 23.2759 45.285C23.1659 45.2575 23.0559 45.2575 22.9459 45.3125C22.7167 45.4134 22.4784 45.5142 22.2492 45.6151C22.2034 45.6334 22.1484 45.6517 22.0842 45.67C22.0659 45.56 22.0567 45.4684 22.0475 45.3859C22.0384 45.2759 22.02 45.175 22.0292 45.065C22.0384 44.8451 21.9742 44.6525 21.8734 44.4692C21.7725 44.2859 21.7359 44.1026 21.7542 43.8917C21.7817 43.4426 21.7817 42.9934 21.7909 42.5442C21.7909 42.4525 21.8184 42.3792 21.8734 42.315C21.9375 42.2325 21.9467 42.1501 21.9192 42.0584C21.8459 41.8475 21.7817 41.6367 21.7084 41.4351C21.69 41.3892 21.6442 41.3526 21.6075 41.3159C21.5617 41.2884 21.5159 41.2701 21.4334 41.2334C21.5067 41.2059 21.5434 41.1875 21.5892 41.1784C21.7084 41.1417 21.8275 41.1142 21.9375 41.0592C22.02 41.0134 22.1025 40.9492 22.1667 40.885C22.2125 40.83 22.2309 40.7659 22.2125 40.6834C22.1209 40.2709 22.0292 39.8492 21.9467 39.4367C21.9284 39.3359 21.8825 39.2809 21.7817 39.2717C21.69 39.2625 21.5892 39.235 21.4792 39.2167C21.4517 39.0517 21.4059 38.8867 21.3875 38.7125C21.3784 38.6025 21.3417 38.5109 21.2592 38.4284C21.085 38.2451 20.9292 38.0525 20.7734 37.86C20.7 37.7775 20.6359 37.75 20.5167 37.7684C19.9575 37.8417 19.4992 38.1075 19.1692 38.5659C19.0867 38.685 18.9767 38.74 18.83 38.8225C18.8575 38.5842 18.7842 38.4009 18.7109 38.2175C18.6834 38.1534 18.665 38.0892 18.6467 38.025C18.6467 37.9884 18.6375 37.9425 18.6467 37.9059C18.6559 37.8234 18.7292 37.7501 18.7934 37.7409C18.8759 37.7317 18.94 37.7684 18.9767 37.8417C19.0134 37.915 19.05 37.9884 19.0867 38.08C19.2059 37.9975 19.2975 37.8875 19.2884 37.7592C19.2884 37.585 19.2425 37.4109 19.1967 37.2459C19.1692 37.1359 19.105 37.035 19.0042 36.98C18.94 36.9434 18.9125 36.8884 18.9034 36.8242C18.885 36.6867 18.7934 36.6317 18.6834 36.5675C18.5184 36.4759 18.3809 36.4942 18.2434 36.6134C18.0325 36.7967 17.8034 36.9709 17.5925 37.1542C17.3817 37.3375 17.3634 37.5484 17.5284 37.7775C17.5467 37.805 17.565 37.8234 17.5925 37.8509C17.5742 37.8784 17.5559 37.915 17.5284 37.9425C17.3634 38.1534 17.2075 38.3642 17.0425 38.5659C16.9967 38.6209 16.9784 38.685 16.9967 38.7584C17.0242 38.905 17.0425 39.0517 17.0609 39.1892C17.0792 39.2809 17.0609 39.3542 16.9967 39.4276C16.8959 39.5284 16.8042 39.6384 16.7217 39.7484C16.5842 39.9134 16.4742 40.0967 16.4192 40.3075C16.3917 40.3992 16.3459 40.4542 16.2817 40.5092C16.135 40.6192 15.9792 40.7292 15.8417 40.8484C15.7684 40.9126 15.7042 40.9859 15.6584 41.0684C15.6034 41.16 15.64 41.215 15.7317 41.2517C15.8234 41.2792 15.9059 41.3251 15.97 41.4076C16.0342 41.4809 16.1167 41.4809 16.1992 41.4625C16.3459 41.4167 16.5017 41.3709 16.6392 41.3067C16.9784 41.1509 17.2809 40.94 17.5925 40.7292C17.73 40.6376 17.8767 40.5367 18.0234 40.4359C18.0692 40.4725 18.0967 40.5092 18.1425 40.5459C18.115 40.5826 18.0875 40.6192 18.06 40.6467C17.8859 40.83 17.7117 41.0042 17.5375 41.1875C17.4092 41.3251 17.2717 41.4626 17.1342 41.6001C17.0334 41.6917 16.9967 41.8017 17.0059 41.9392C17.0334 42.5442 17.0425 43.1492 17.07 43.7542C17.07 43.8092 17.07 43.8642 17.07 43.9192C16.905 43.9742 16.74 44.0384 16.5842 44.0934C16.2359 43.855 15.9242 43.5892 15.64 43.2775C15.4475 43.0667 15.255 42.8559 15.0717 42.6542C15.145 42.0034 15.2275 41.3526 15.3009 40.7017C15.3375 40.3625 15.3742 40.0234 15.4109 39.6842C15.4109 39.6109 15.3925 39.5559 15.3467 39.51C15.1725 39.3634 15.1359 39.1801 15.1817 38.9692C15.1909 38.9234 15.1817 38.8684 15.1817 38.8225C15.1817 38.8042 15.1817 38.795 15.1634 38.7584C14.9525 38.7217 14.7325 38.685 14.5034 38.6484C14.5217 38.5934 14.5217 38.5476 14.54 38.5109C14.6134 38.4009 14.6317 38.2725 14.6684 38.1534C14.7692 37.7959 14.8884 37.4475 14.9892 37.09C15.0625 36.8059 15.1267 36.5217 15.1909 36.2375C15.2092 36.155 15.1817 36.1092 15.1175 36.0725C14.2009 35.5592 13.4217 34.8717 12.6059 34.23C12.5325 34.175 12.4592 34.1109 12.3859 34.0559C12.3125 34.0009 12.2667 33.9459 12.23 33.8542C12.1842 33.6984 12.065 33.6434 11.9092 33.7075C11.6525 33.7992 11.405 33.9092 11.1392 33.9917C10.91 34.065 10.6809 34.12 10.4517 34.1842C10.36 34.2117 10.2775 34.2484 10.195 34.2759C9.90171 34.395 9.90171 34.395 9.64504 34.2117C9.29671 33.955 8.94837 33.6984 8.60921 33.4509C8.52671 33.3959 8.48087 33.3225 8.44421 33.2309C8.27921 32.8459 8.06837 32.4792 7.84837 32.1217C7.55504 31.6359 7.25254 31.15 7.02337 30.6184C7.00504 30.5725 6.95004 30.5267 6.90421 30.49C6.43671 30.1692 5.97837 29.8575 5.51087 29.5459C5.42837 29.4909 5.34587 29.4267 5.29087 29.335C5.26337 29.28 5.22671 29.2342 5.19004 29.1884C5.06171 29.0509 5.00671 28.8859 4.99754 28.6934C4.97921 28.3725 4.94254 28.0609 4.91504 27.74C4.91504 27.7034 4.93337 27.6575 4.95171 27.6209C5.04337 27.4559 5.14421 27.2909 5.22671 27.1259C5.25421 27.0709 5.30004 27.0342 5.35504 27.025C5.48337 26.9884 5.62087 26.9517 5.74921 26.915C5.84087 26.8967 5.92337 26.8509 5.98754 26.7775C6.07004 26.695 6.15254 26.6309 6.26254 26.585C6.30837 26.5667 6.34504 26.5209 6.37254 26.475C6.67504 26.0717 6.98671 25.6592 7.19754 25.1917C7.19754 25.1917 7.21587 25.1917 7.23421 25.1734C7.27087 25.2559 7.29837 25.3292 7.32587 25.4117C7.41754 25.65 7.50004 25.8975 7.59171 26.145C7.62837 26.2367 7.67421 26.3375 7.72004 26.42C7.79337 26.5484 7.84837 26.5575 7.97671 26.475C8.00421 26.4567 8.02254 26.4475 8.06837 26.4109C8.08671 26.5025 8.10504 26.585 8.10504 26.6675C8.10504 26.8417 8.19671 26.9609 8.32504 27.0617C8.42587 27.135 8.53587 27.2084 8.63671 27.2817C8.65504 27.3 8.67337 27.3275 8.71004 27.3642C8.57254 27.3825 8.45337 27.4009 8.33421 27.41C7.87587 27.4559 7.41754 27.5109 6.96837 27.5567C6.95004 27.5567 6.93171 27.5567 6.91337 27.5567C6.83087 27.575 6.75754 27.6392 6.75754 27.7125C6.75754 27.795 6.80337 27.85 6.87671 27.8775C6.89504 27.8775 6.91337 27.8959 6.93171 27.8959C7.09671 27.9234 7.25254 27.96 7.41754 27.9692C7.72921 27.9875 8.03171 27.9875 8.34337 27.9967C8.37087 27.9967 8.39837 27.9967 8.43504 28.0242C8.39837 28.0425 8.35254 28.0609 8.31587 28.0884C8.28837 28.1159 8.25171 28.1617 8.25171 28.2075C8.25171 28.235 8.30671 28.2809 8.34337 28.29C8.45337 28.3084 8.57254 28.3267 8.69171 28.3267C9.37004 28.3267 10.0392 28.3267 10.7175 28.3175C10.8275 28.3175 10.9375 28.3175 11.0475 28.3267C11.0475 28.3359 11.0475 28.3542 11.0475 28.3634C11.0017 28.3817 10.9467 28.4 10.9009 28.4C10.6992 28.4184 10.4884 28.4367 10.2867 28.4459C9.82837 28.4825 9.37004 28.5192 8.91171 28.5559C8.61837 28.5742 8.31587 28.5925 8.02254 28.6017C7.85754 28.6017 7.72004 28.6842 7.58254 28.7392C7.51837 28.7667 7.50921 28.8217 7.50921 28.8859C7.50921 28.9592 7.55504 28.9775 7.61004 28.9959C7.80254 29.0692 8.01337 29.0784 8.21504 29.0875C8.49004 29.0875 8.76504 29.0875 9.04004 29.0875C9.15004 29.0875 9.24171 29.0967 9.30587 29.2067C9.35171 29.28 9.43421 29.2709 9.50754 29.2709C9.59004 29.2709 9.67254 29.2525 9.74587 29.3259C9.72754 29.3534 9.71837 29.3809 9.70004 29.4084C9.64504 29.5275 9.70004 29.6192 9.82837 29.6375C9.86504 29.6375 9.89254 29.6375 9.92921 29.6375C11.3684 29.6375 12.8167 29.6375 14.2559 29.6375C14.6317 29.6375 14.9984 29.6375 15.3742 29.665C15.5484 29.6742 15.7225 29.7017 15.8967 29.665C15.97 29.6467 16.0525 29.6192 16.1075 29.5825C16.1992 29.5184 16.1809 29.4267 16.08 29.3809C16.0434 29.3625 16.0067 29.3534 15.97 29.3534C15.6859 29.3167 15.4109 29.2892 15.1267 29.2617C15.0625 29.2617 14.9892 29.2434 14.925 29.2159C14.9525 29.2067 14.98 29.1884 15.0075 29.1792C15.0534 29.17 15.1084 29.1609 15.1542 29.1609C15.6309 29.1517 16.0984 29.1884 16.575 29.2617C16.6025 29.2617 16.63 29.2709 16.6667 29.28C16.63 29.335 16.6025 29.3717 16.5659 29.4175C16.6209 29.5092 16.7125 29.555 16.8134 29.5642C17.0425 29.5825 17.2809 29.61 17.51 29.61C17.8492 29.61 18.1975 29.6009 18.5367 29.5917C18.6009 29.5917 18.665 29.5825 18.72 29.555C18.7567 29.5367 18.8117 29.5 18.8117 29.4634C18.8117 29.4267 18.7842 29.3717 18.7475 29.3442C18.7017 29.3075 18.6375 29.2892 18.5734 29.28C18.4175 29.2525 18.2617 29.2434 18.1059 29.225C18.3534 29.1609 18.61 29.1059 18.8575 29.0417C19.2975 28.9317 19.7467 28.84 20.1775 28.7209C20.3975 28.6659 20.5809 28.5284 20.7459 28.3817C20.7 28.3084 20.645 28.3267 20.59 28.3359C20.3792 28.3542 20.1684 28.3817 19.9667 28.4092C19.9025 28.4092 19.8384 28.4184 19.765 28.4275C19.7742 28.3175 19.8567 28.2717 19.8934 28.1984C19.9667 28.0609 20.0859 28.0334 20.2234 28.0242C20.5075 28.0059 20.7917 27.9967 21.0667 27.9692C21.3234 27.9509 21.5709 27.9234 21.8275 27.8867C22.02 27.8684 22.2125 27.8317 22.405 27.8134C22.5334 27.795 22.5792 27.7859 22.68 27.7125C22.6342 27.685 22.5975 27.6392 22.5609 27.6392C22.3317 27.6209 22.1575 27.4834 21.9559 27.4009C21.8917 27.3734 21.8367 27.3642 21.7725 27.3734C21.3509 27.41 20.9292 27.4467 20.4709 27.4834C20.5075 27.4192 20.5259 27.3825 20.5534 27.355C20.8009 27.0342 21.0484 26.7134 21.2959 26.3925C21.3417 26.3284 21.3875 26.255 21.415 26.1725C21.4884 25.98 21.5525 25.7784 21.6167 25.5767C21.635 25.5309 21.6625 25.485 21.69 25.4575C21.8917 25.2192 22.1025 24.9809 22.3134 24.7517C22.3775 24.6784 22.3867 24.605 22.3867 24.5225C22.3959 24.4125 22.3867 24.3117 22.4875 24.2292C22.6067 24.1375 22.7167 24.0642 22.8725 24.0642C23.1109 24.0642 23.2759 23.9084 23.2759 23.6792C23.2759 23.56 23.3217 23.4959 23.395 23.4317C23.5417 23.3034 23.6884 23.175 23.835 23.0467C24.3025 22.6434 24.7792 22.24 25.2467 21.8367C25.32 21.7725 25.3567 21.7084 25.3567 21.6075C25.3567 21.5067 25.2834 21.4517 25.1825 21.4884C25.1 21.5159 25.0084 21.5617 24.935 21.6075C24.1467 22.075 23.3859 22.57 22.6525 23.12C22.5975 23.1659 22.5334 23.1842 22.46 23.175C22.2492 23.1659 22.0384 23.1475 21.8275 23.1475C21.745 23.1475 21.6534 23.1659 21.5709 23.1842C21.525 23.1934 21.47 23.23 21.4334 23.2667C21.3142 23.3859 21.3325 23.4684 21.4792 23.5417C21.4884 23.5417 21.5067 23.56 21.525 23.5784C21.4792 23.6059 21.4425 23.6334 21.4059 23.6517C21.0025 23.8717 20.5992 24.1009 20.205 24.3209C20.1317 24.3667 20.0584 24.3942 19.9759 24.3484C19.9667 24.3484 19.9484 24.3484 19.93 24.3484C19.765 24.3117 19.7284 24.33 19.6734 24.495C19.6184 24.6875 19.5634 24.715 19.3067 24.6784C19.4167 24.6417 19.435 24.5592 19.4534 24.4859C19.49 24.3484 19.5267 24.2109 19.5725 24.0642C19.6459 24.1009 19.7192 24.1375 19.7834 24.1742C19.8475 24.22 19.9025 24.2109 19.9575 24.1559C20.0034 24.11 20.04 24.055 20.0859 23.9909C20.1225 23.9267 20.1592 23.8717 20.205 23.7984C20.26 23.8259 20.315 23.8534 20.3609 23.8717C20.5075 23.9359 20.5534 23.9267 20.6359 23.7984C20.7184 23.67 20.8009 23.5325 20.8467 23.3767C20.9475 23.0009 21.0392 22.625 21.1125 22.2492C21.1767 21.9284 21.195 21.5984 21.2409 21.2775C21.2775 21.03 21.3234 20.7734 21.3692 20.5259C21.4059 20.26 21.4425 19.9942 21.4792 19.7284C21.4884 19.6459 21.4792 19.5725 21.4334 19.4992C21.3692 19.3984 21.305 19.2884 21.2225 19.1967C20.975 18.9309 20.7 18.6834 20.4067 18.4634C20.3334 18.4084 20.2692 18.3992 20.1775 18.4267C20.0859 18.4634 19.985 18.4909 19.875 18.5184C19.8659 18.445 19.8475 18.3717 19.8292 18.28C19.7009 18.3442 19.5909 18.39 19.4625 18.445C19.325 18.1884 19.1967 17.9409 19.0592 17.675C19.3434 17.7025 19.5542 17.8859 19.7925 18.0234C19.8659 17.8675 19.875 17.7025 19.875 17.5467C19.8842 17.0609 19.8017 16.5934 19.6917 16.1259C19.6275 15.8692 19.5542 15.6125 19.49 15.365C19.4809 15.3284 19.4717 15.2917 19.4534 15.2275C19.6184 15.3192 19.7192 15.4475 19.8659 15.5575C19.9117 15.475 19.9575 15.4017 20.0034 15.3192C20.04 15.255 20.0767 15.2184 20.1592 15.2092C20.3242 15.1909 20.4709 15.1359 20.5992 15.035C20.7917 14.8884 20.9934 14.7692 21.1859 14.6225C21.8459 14.1275 22.5792 13.7334 23.2942 13.3209C23.9542 12.9359 24.6234 12.5509 25.2834 12.1659C25.4392 12.0742 25.595 12.0375 25.7692 12.0192C25.7967 12.0192 25.8242 12.0192 25.8609 12.0192C26.0075 12.0192 26.1267 11.9825 26.2275 11.8359C26.4475 11.5242 26.7775 11.3684 27.1442 11.2675C27.2909 11.2309 27.4375 11.1942 27.5934 11.1759C27.685 11.1667 27.7584 11.1392 27.8134 11.075C27.96 10.8825 28.18 10.8092 28.4 10.7634C28.7392 10.6809 29.0784 10.5892 29.4175 10.4975C29.4634 10.4884 29.5092 10.4609 29.5459 10.4334C29.8392 10.2225 30.1325 10.0117 30.435 9.81005C30.4809 9.78255 30.5267 9.76421 30.5817 9.73671C31.205 9.47088 31.8375 9.21421 32.4609 8.94838C32.8642 8.77421 33.2859 8.68255 33.7167 8.61838C33.9275 8.58171 34.1384 8.55421 34.3584 8.51755C34.4317 8.50838 34.5142 8.48088 34.5784 8.44421C34.7709 8.34338 34.9542 8.23338 35.1375 8.12338C35.33 8.00421 35.5225 7.92171 35.7517 7.89421C36.2467 7.82088 36.7509 7.76588 37.255 7.77505C37.3467 7.77505 37.4292 7.79338 37.5209 7.78421C37.7134 7.78421 37.8325 7.90338 37.9609 8.01338C37.9884 8.04088 37.9975 8.07755 38.025 8.11421C38.2084 8.15088 38.3275 8.24255 38.3917 8.42588C38.4742 8.69171 38.575 8.95755 38.6667 9.22338C38.6759 9.25088 38.685 9.27838 38.7034 9.30588C38.9692 9.75505 39.1617 10.2409 39.3634 10.7267C39.4275 10.8917 39.5009 11.0475 39.5742 11.2125C39.5742 11.2309 39.5834 11.2492 39.5925 11.2767L39.4825 11.3409ZM29.4909 27.025C29.5459 26.9823 29.5978 26.9609 29.6467 26.9609C30.435 26.9609 31.2234 26.9517 32.0117 26.9334C32.5984 26.9334 33.185 26.9059 33.7717 26.8875C33.8542 26.8875 33.9 26.9059 33.9459 26.97C33.9825 27.0342 34.0192 27.0984 34.0559 27.1625C34.1017 27.2359 34.1659 27.2817 34.2575 27.2725C34.6792 27.245 35.1009 27.2359 35.5134 27.2084C35.6417 27.2084 35.7425 27.2359 35.8342 27.3184C35.88 27.355 35.9259 27.4009 35.9717 27.4192C36.0267 27.4467 36.0909 27.465 36.1459 27.465C36.2834 27.465 36.4209 27.4467 36.5584 27.4467C36.87 27.4467 37.1725 27.4467 37.4842 27.4467C37.585 27.4467 37.695 27.41 37.7959 27.3825C37.8784 27.355 37.9242 27.2909 37.915 27.1992C37.915 27.1534 37.915 27.1075 37.915 27.0342C38.0342 27.1167 38.135 27.1809 38.2267 27.2542C38.3275 27.3367 38.4192 27.3459 38.5384 27.3C38.7492 27.2175 38.9692 27.1442 39.18 27.0617C39.235 27.0434 39.2809 26.9975 39.3175 26.9609C39.3634 26.9059 39.345 26.86 39.2717 26.8417C39.235 26.8417 39.2075 26.8417 39.1709 26.8417C39.0884 26.8417 39.015 26.8417 38.9325 26.8417C38.1442 26.8417 37.3559 26.8234 36.5675 26.8142C36.3934 26.8142 36.2375 26.7684 36.0817 26.7225C36.0267 26.7042 35.9717 26.6859 35.9625 26.6034C36.0175 26.6034 36.0634 26.6034 36.1092 26.6034C36.7784 26.5942 37.4475 26.5667 38.1167 26.5667C38.3459 26.5667 38.5567 26.4934 38.7675 26.4292C38.8317 26.4109 38.905 26.3834 38.9417 26.2825C38.8042 26.2184 38.6667 26.1634 38.5384 26.0992C38.4559 26.0625 38.3642 26.0259 38.3 25.9709C38.1625 25.8609 38.0709 25.8425 37.915 25.9342C37.86 25.9617 37.805 25.9984 37.7592 26.0442C37.695 26.0992 37.6309 26.1267 37.5392 26.09C37.4934 26.0717 37.4475 26.0717 37.3925 26.0625C37.1084 26.0442 36.8242 26.0259 36.54 25.9984C36.0267 25.9617 35.5042 25.9159 34.9909 25.87C34.9634 25.87 34.945 25.8517 34.9175 25.8425C34.9909 25.8059 35.0642 25.7967 35.1375 25.7875C35.4217 25.7784 35.715 25.7692 35.9992 25.7509C36.2834 25.7417 36.5767 25.7325 36.8609 25.7142C36.9525 25.7142 37.0442 25.6775 37.1267 25.65C37.365 25.5492 37.6034 25.4484 37.8325 25.3475C38.0434 25.4942 38.2725 25.5584 38.52 25.5584C38.8225 25.5584 38.8042 25.6317 38.9509 25.265C38.9875 25.2559 39.0242 25.2375 39.0609 25.2284C39.2534 25.1825 39.4459 25.1275 39.6384 25.0817C39.7117 25.0634 39.7759 25.045 39.8125 24.9717C39.7209 24.8984 39.62 24.8892 39.5192 24.8709C39.3084 24.8342 39.0975 24.7975 38.8867 24.7517C38.8592 24.7517 38.8409 24.7334 38.8225 24.7242C38.6575 24.6417 38.5017 24.5684 38.3367 24.4859C38.245 24.44 38.1442 24.3942 38.0434 24.3484C38.0434 24.2934 38.0617 24.2384 38.0525 24.1925C38.0434 24.0367 38.0434 23.8809 37.9975 23.7342C37.9609 23.615 37.9334 23.4867 37.9242 23.3675C37.915 22.9825 37.9059 22.5975 37.8967 22.2125C37.8875 21.7175 37.8784 21.2225 37.7684 20.7367C37.7317 20.59 37.7134 20.425 37.6034 20.3059C37.5759 20.2784 37.5759 20.2234 37.5667 20.1867C37.5575 20.1225 37.5484 20.0492 37.5484 19.985C37.5484 19.9025 37.5209 19.8384 37.4567 19.8017C37.3925 19.765 37.3834 19.71 37.3834 19.6367C37.4017 19.4259 37.4109 19.215 37.4292 19.0042C37.4659 18.3992 37.5025 17.7942 37.5484 17.1892C37.5575 17.0242 37.5025 16.8959 37.3742 16.795C37.31 16.7492 37.3009 16.6942 37.3192 16.6209C37.365 16.465 37.4017 16.3092 37.4384 16.1534C37.4842 15.9792 37.5209 15.805 37.5575 15.6217C37.5759 15.5209 37.5392 15.475 37.4384 15.4659C37.3467 15.4567 37.2642 15.4842 37.1909 15.5392C37.035 15.6859 36.87 15.8325 36.7142 15.97C36.5125 16.1625 36.3109 16.355 36.1 16.5384C35.935 16.6942 35.7609 16.8317 35.605 16.9875C35.22 17.3542 34.8534 17.7484 34.5417 18.1792C34.4225 18.3442 34.3675 18.5092 34.395 18.7109C34.395 18.7109 34.395 18.7292 34.3859 18.7475C34.3584 18.7659 34.3309 18.775 34.3034 18.7934C33.7259 19.105 33.1575 19.4259 32.58 19.7375C32.4792 19.7925 32.3875 19.8567 32.2959 19.9117C32.2134 19.9575 32.1675 20.0309 32.1675 20.1225C32.1675 20.2967 32.1675 20.4617 32.1767 20.6359C32.1767 20.7275 32.1584 20.7734 32.085 20.81C31.9842 20.8559 31.8925 20.9017 31.7917 20.9384C31.6175 21.0025 31.4434 21.0575 31.26 21.1034C31.1317 21.14 31.0584 21.2134 31.0217 21.3417C30.9667 21.525 30.9209 21.7084 30.8842 21.8917C30.82 22.24 30.82 22.24 30.5267 22.4325C30.3159 22.57 30.0959 22.7075 29.8942 22.8542C29.3442 23.2484 28.8034 23.6425 28.2534 24.0367C28.015 24.2109 27.7767 24.385 27.5842 24.605C27.5475 24.6509 27.5017 24.6875 27.4467 24.715C27.3367 24.7884 27.2817 24.8984 27.2634 25.0175C27.2359 25.1459 27.3184 25.2467 27.4559 25.2559C27.6209 25.2559 27.7859 25.2559 27.9509 25.2559C28.2625 25.2559 28.5742 25.2559 28.8859 25.2559C29.0325 25.2559 29.1792 25.2742 29.3259 25.2834C29.2525 25.375 29.1517 25.375 29.06 25.3934C28.9592 25.4117 28.8584 25.4209 28.7575 25.4575C28.6292 25.5034 28.62 25.6042 28.73 25.6959C28.8125 25.76 28.9134 25.7875 29.0142 25.8059C29.2525 25.8425 29.5 25.8792 29.7384 25.9159C30.0592 25.9617 30.3892 25.9892 30.7192 25.925C30.8384 25.9067 30.9484 25.925 31.04 26.0259C31.0859 26.0809 31.15 26.0992 31.2234 26.1084C31.4892 26.1359 31.7459 26.1634 32.0117 26.1909C32.1309 26.2092 32.25 26.2275 32.3509 26.3009C32.305 26.3009 32.2592 26.3009 32.2042 26.3009C31.8834 26.3009 31.5717 26.3009 31.2509 26.3009C29.9675 26.2734 28.6934 26.365 27.41 26.3009C27.3367 26.3009 27.245 26.3375 27.1717 26.365C27.0892 26.4017 27.0892 26.4384 27.135 26.5209C27.1809 26.6034 27.2634 26.6584 27.355 26.6859C27.4834 26.7134 27.6117 26.7317 27.74 26.75C27.905 26.7775 28.0792 26.7684 28.2625 26.8509C28.1984 26.8692 28.1525 26.8875 28.1067 26.9059C28.0517 26.9334 27.9875 26.9517 27.9325 26.9884C27.795 27.0892 27.7492 27.2725 27.9692 27.3825C28.0975 27.4467 28.2259 27.52 28.3817 27.52C28.4825 27.52 28.5742 27.5475 28.675 27.5475C29.0325 27.5659 29.39 27.6392 29.7567 27.5934C29.775 27.5934 29.7934 27.5934 29.8209 27.5934C29.7842 27.6575 29.7567 27.6942 29.7292 27.74C29.6467 27.905 29.72 28.0517 29.9034 28.0792C30.0134 28.0975 30.1234 28.1067 30.2425 28.1159C30.5267 28.125 30.8109 28.125 31.095 28.1434C31.3334 28.1525 31.5717 28.18 31.81 28.1984C31.8834 28.1984 31.9384 28.235 31.975 28.3084C32.0209 28.3909 32.085 28.4184 32.1859 28.4092C32.3784 28.4 32.5709 28.3909 32.7542 28.3817C33.5242 28.345 34.2942 28.3084 35.0642 28.2534C35.1834 28.2534 35.2659 28.2625 35.3209 28.3634C35.3575 28.4275 35.4217 28.455 35.495 28.4459C35.7609 28.4184 36.0267 28.4184 36.2834 28.3817C36.5309 28.345 36.7692 28.2717 36.9709 28.1067C37.0167 28.07 37.0625 28.0242 37.0992 27.9784C37.0259 27.8959 36.9525 27.8959 36.87 27.905C36.705 27.9234 36.54 27.96 36.375 27.9325C36.2284 27.9142 36.0817 27.8959 35.935 27.8867C35.8617 27.8867 35.7884 27.8867 35.7242 27.8775C35.7334 27.6759 35.7334 27.6759 35.5592 27.6025C35.5042 27.5842 35.4492 27.5659 35.3942 27.5659C34.505 27.5567 33.625 27.5475 32.7359 27.5384C32.7084 27.5384 32.6809 27.5292 32.6167 27.52C32.7084 27.4742 32.7634 27.4467 32.8184 27.41C32.8825 27.3734 32.9284 27.3275 32.9192 27.245C32.91 27.1625 32.8459 27.135 32.7725 27.1259C32.69 27.1167 32.6075 27.0984 32.525 27.0984C32.3967 27.0984 32.2684 27.1075 32.14 27.1167C31.4617 27.1167 30.7834 27.1167 30.105 27.1259C29.9034 27.1259 29.72 27.0709 29.5367 27.0159C29.5184 27.0159 29.5092 26.9975 29.4909 26.9884V27.025ZM19.7925 33.5059C19.7925 33.5059 19.8659 33.5334 19.9025 33.5425C20.0217 33.5609 20.1317 33.57 20.2509 33.5884C20.5534 33.6342 20.8467 33.6892 21.1492 33.7075C21.7175 33.7534 22.2767 33.7717 22.845 33.7992C22.9825 33.7992 23.1292 33.7992 23.2667 33.8175C23.5234 33.845 23.7709 33.8909 23.9725 34.0559C24.0275 34.1017 24.11 34.1384 24.1834 34.1475C24.385 34.1567 24.5867 34.1659 24.7884 34.1475C25.1642 34.1109 25.5309 34.0559 25.9067 34.0009C26.365 33.9367 26.8142 33.9275 27.2542 34.0559C27.5109 34.1292 27.7767 34.1475 28.0334 34.1017C28.2075 34.065 28.3359 33.9642 28.455 33.8542C28.4734 33.8359 28.4825 33.7992 28.5009 33.7442C28.4 33.7442 28.3084 33.735 28.2259 33.735C28.0975 33.735 27.9692 33.7625 27.8409 33.7534C27.5292 33.7442 27.2267 33.7167 26.915 33.6984C26.3009 33.6617 25.6867 33.625 25.0725 33.5884C24.5959 33.5609 24.1192 33.5242 23.6425 33.4967C23.5509 33.4967 23.45 33.4784 23.3492 33.46C23.3492 33.3959 23.3492 33.35 23.3492 33.3042C23.4409 32.3325 23.7617 31.4525 24.385 30.6917C24.6509 30.3709 24.9534 30.105 25.3384 29.9217C25.3842 29.9034 25.43 29.885 25.485 29.8575C25.4667 30.0317 25.4392 30.1875 25.4392 30.3525C25.4392 30.5725 25.4667 30.8017 25.485 31.0217C25.485 31.15 25.485 31.2692 25.485 31.3975C25.265 31.4892 25.0084 31.4709 24.8067 31.645C24.8342 31.7 24.8617 31.755 24.8984 31.8009C24.9717 31.8834 25.0725 31.9292 25.1825 31.9475C25.3292 31.975 25.4759 31.9934 25.6409 32.0209C25.7509 32.3234 25.9067 32.6075 26.0809 32.8734C26.1542 32.9925 26.2275 33.1117 26.3009 33.2309C26.42 33.4142 26.5667 33.5334 26.8142 33.5334C27.3917 33.5517 27.9784 33.4692 28.5559 33.5242C28.62 33.5242 28.675 33.5242 28.6934 33.4509C28.6659 33.3775 28.6017 33.3592 28.5284 33.35C28.4459 33.3317 28.3725 33.3042 28.29 33.2767C28.2167 33.2584 28.1525 33.2217 28.0792 33.2125C27.9417 33.185 27.795 33.1759 27.6575 33.1484C27.5017 33.1209 27.3459 33.1209 27.2084 33.0475C27.2909 32.6809 27.52 32.4425 27.85 32.305C27.9509 32.2684 28.0242 32.2042 28.0975 32.14C28.2534 32.0025 28.2717 31.8467 28.18 31.6634C28.1159 31.535 28.0517 31.4067 28.0059 31.2784C27.4834 29.9675 26.9517 28.6475 26.4384 27.3275C26.3925 27.1992 26.3192 27.1167 26.2 27.0709C26.145 27.0434 26.0809 27.0342 26.0167 27.0159C25.98 27.0067 25.925 26.9975 25.8975 26.97C25.6134 26.7684 25.3292 26.5575 25.0359 26.3559C24.9717 26.31 24.8892 26.2825 24.8159 26.2459C24.7609 26.2184 24.715 26.2459 24.6784 26.2917C24.5959 26.4017 24.5225 26.5117 24.44 26.6217C24.3484 26.75 24.2567 26.8875 24.165 27.0159C24.11 27.0892 24.0459 27.1167 23.9634 27.0709C23.8442 27.0067 23.725 26.9425 23.6059 26.8784C23.505 26.8234 23.4134 26.7684 23.3125 26.7042C23.2575 26.805 23.2117 26.8967 23.1659 26.9792C22.9092 27.5292 22.6525 28.0884 22.3959 28.6384C22.3684 28.7025 22.3134 28.7667 22.2584 28.8034C22.0659 28.9592 21.8734 29.0967 21.6717 29.2434C21.5984 29.2984 21.5525 29.3534 21.5159 29.4267C21.3325 29.7934 21.1309 30.1692 20.9475 30.5359C20.8925 30.6459 20.8284 30.7375 20.7367 30.8109C20.6909 30.8475 20.645 30.8842 20.6175 30.9392C20.5442 31.0859 20.48 31.2417 20.425 31.3975C20.4067 31.4434 20.4067 31.4892 20.3884 31.5534C20.4892 31.5809 20.5717 31.6175 20.6634 31.6359C20.8284 31.6725 21.0025 31.6909 21.1675 31.7275C21.2684 31.7459 21.3784 31.755 21.47 31.8284C21.4059 31.92 21.3234 31.9384 21.2409 31.9475C20.9017 32.0025 20.5534 32.0484 20.2142 32.1034C20.0584 32.1309 19.8934 32.1584 19.7375 32.1859C19.655 32.2042 19.5817 32.2317 19.5542 32.3325C19.5909 32.3417 19.6275 32.36 19.655 32.3692C19.765 32.3784 19.875 32.3875 19.9942 32.3875C20.4342 32.415 20.8742 32.4517 21.3142 32.4792C21.5067 32.4884 21.6717 32.5709 21.8367 32.6442C21.8642 32.6534 21.8917 32.6809 21.9192 32.7084C21.9925 32.7909 21.9834 32.8734 21.8917 32.9284C21.8367 32.965 21.7634 32.9834 21.6992 33.0017C21.1217 33.1209 20.5442 33.24 19.9667 33.3592C19.9025 33.3775 19.8292 33.3867 19.7925 33.4784V33.5059ZM26.4934 18.5367C26.6217 18.5642 26.7042 18.5092 26.7775 18.4359C26.9609 18.2617 27.1442 18.0784 27.3275 17.9042C27.4559 17.785 27.5934 17.675 27.7309 17.565C27.795 17.51 27.8684 17.51 27.9509 17.5192C28.1709 17.5559 28.3817 17.5925 28.6017 17.6292C28.8309 17.675 29.0142 17.565 29.17 17.4184C29.3625 17.235 29.5092 17.015 29.6834 16.8134C29.8117 16.6667 29.9859 16.6117 30.1692 16.575C30.2059 16.5659 30.2517 16.5842 30.2975 16.6025C30.3342 16.6117 30.3617 16.6392 30.3984 16.6575C30.5725 16.7309 30.7467 16.7767 30.9392 16.7217C31.0675 16.685 31.1317 16.5292 31.0584 16.4192C31.0309 16.3825 30.9484 16.3275 30.9209 16.3459C30.8384 16.3825 30.7925 16.3459 30.7284 16.3184C30.5725 16.245 30.4075 16.1717 30.2517 16.0892C30.0225 15.9792 29.7934 15.8967 29.5459 15.86C29.445 15.8417 29.3717 15.86 29.2984 15.9334C29.1059 16.1075 28.9134 16.2817 28.73 16.465C28.5834 16.6117 28.4367 16.685 28.2167 16.6117C27.8684 16.5017 27.6025 16.6667 27.41 16.96C27.1992 17.2717 26.9884 17.5834 26.7684 17.895C26.64 18.0692 26.6034 18.2892 26.5117 18.4817C26.5117 18.5 26.5117 18.5184 26.5117 18.5459L26.4934 18.5367ZM33.075 13.1009C33.075 13.1009 33.0017 13.055 32.9742 13.0367C32.7909 12.9542 32.6075 12.8717 32.4242 12.7892C32.3692 12.7617 32.2959 12.7617 32.2409 12.7617C31.9567 12.78 31.6817 12.835 31.4525 13.0367C31.3792 13.1009 31.3059 13.1559 31.2417 13.22C31.1684 13.3117 31.0767 13.3209 30.9667 13.3025C30.8109 13.275 30.6459 13.2384 30.49 13.2842C30.435 13.3025 30.38 13.3392 30.3525 13.3759C30.1875 13.5959 30.0225 13.825 29.8667 14.0542C29.8209 14.1184 29.775 14.1917 29.7384 14.2559C29.7934 14.4667 29.8667 14.485 30.0775 14.3659C30.27 14.2467 30.4717 14.1275 30.6734 14.0175C30.7375 13.9809 30.82 13.9717 30.8934 13.9717C31.0217 13.9717 31.15 13.99 31.2692 14.0084C31.3517 14.0175 31.4342 14.0084 31.5075 13.9717C31.6267 13.8892 31.755 13.8159 31.8742 13.7242C31.9934 13.6325 32.1125 13.5409 32.2409 13.4584C32.3509 13.385 32.47 13.3392 32.6167 13.3484C32.6992 13.3484 32.7909 13.3117 32.8734 13.3025C32.9742 13.2842 33.0475 13.22 33.0842 13.1009H33.075ZM17.3267 31.9659C17.3634 32.0392 17.4367 32.0392 17.5009 32.0392C17.7667 32.0484 18.0417 32.0575 18.3075 32.0667C18.3625 32.0667 18.4084 32.0575 18.4634 32.0484C18.6009 32.03 18.7292 31.9934 18.8667 31.9842C19.2975 31.9659 19.7192 31.9292 20.15 31.865C20.1959 31.865 20.2417 31.865 20.26 31.7825C20.1867 31.755 20.1134 31.7275 20.0309 31.7C19.9117 31.6634 19.8017 31.6267 19.6825 31.59C19.6092 31.5625 19.5359 31.5534 19.4534 31.5625C19.1692 31.6175 18.885 31.6084 18.61 31.5809C18.4817 31.5717 18.3625 31.5809 18.2525 31.6267C17.9867 31.7459 17.7025 31.8284 17.4184 31.8834C17.3725 31.8834 17.3359 31.9017 17.3267 31.9659ZM20.9842 34.7617C20.8192 34.6609 20.6817 34.5784 20.5442 34.505C20.5075 34.4867 20.4617 34.4775 20.4159 34.4775C20.0217 34.4775 19.6367 34.4684 19.2425 34.4592C19.1325 34.4592 19.0409 34.4867 18.9492 34.5325C18.8392 34.5875 18.7292 34.6425 18.6192 34.6975C18.5825 34.7159 18.5459 34.7525 18.5092 34.78C18.6192 34.8534 18.6559 34.8625 18.7659 34.8534C18.9309 34.8534 19.0867 34.8534 19.2517 34.8534C19.49 34.8534 19.7284 34.8534 19.9667 34.8534C20.2967 34.8534 20.6175 34.8442 20.975 34.7709L20.9842 34.7617Z" fill="#16FFA7"></path>
<path d="M13.8984 18.9399C13.9259 19.0316 13.9534 19.0958 13.9809 19.1783C13.9443 19.2058 13.9168 19.2241 13.8893 19.2333C13.7884 19.2699 13.7334 19.3433 13.7243 19.4349C13.7059 19.5449 13.6968 19.6549 13.6968 19.7741C13.6968 19.8749 13.6693 19.9666 13.6418 20.0583C13.5868 20.2049 13.5593 20.3608 13.5318 20.5074C13.5134 20.6083 13.4951 20.6999 13.4309 20.7824C13.3576 20.8833 13.2843 20.9933 13.2109 21.0941C13.0643 21.2958 12.9176 21.4974 12.8168 21.7266C12.7893 21.7908 12.7343 21.8458 12.6976 21.9099C12.6701 21.9558 12.6426 21.9924 12.6334 22.0383C12.5876 22.2399 12.4593 22.3774 12.3126 22.4966C12.1843 22.6066 12.0468 22.7166 11.9184 22.8266C11.8909 22.8449 11.8634 22.8724 11.8268 22.8724C11.5793 22.9183 11.3318 22.9549 11.0934 22.9916C11.0751 22.9916 11.0659 22.9916 11.0384 22.9916C11.0568 22.9549 11.0659 22.9183 11.0843 22.8908C11.1943 22.6799 11.3043 22.4599 11.4143 22.2491C11.4234 22.2216 11.4326 22.1849 11.4601 22.1758C11.6159 22.0841 11.6434 21.9191 11.6801 21.7633C11.6893 21.7174 11.6984 21.6808 11.7076 21.6258C11.3134 21.2316 10.8918 20.8924 10.3784 20.6174C10.4243 20.5899 10.4518 20.5624 10.4701 20.5716C10.5526 20.5716 10.6443 20.5899 10.7268 20.6083C10.9009 20.6541 11.0751 20.7091 11.2493 20.7641C11.3409 20.7916 11.4143 20.7824 11.4968 20.7183C11.7809 20.4983 12.0743 20.2874 12.3676 20.0674C12.4501 20.0033 12.4959 19.9299 12.5326 19.8383C12.6701 19.4441 12.6334 19.5266 12.9634 19.4991C13.1101 19.4899 13.2293 19.4533 13.3393 19.3616C13.4676 19.2516 13.6143 19.1508 13.7518 19.0499C13.7976 19.0133 13.8434 18.9858 13.9168 18.9399H13.8984Z" fill="#6BC38F"></path>
<path d="M10.4515 29.3166C10.5249 29.1791 10.6257 29.1699 10.7174 29.1699C10.9832 29.1699 11.2582 29.1791 11.524 29.1791C11.7257 29.1791 11.9365 29.1791 12.1382 29.1608C12.239 29.1608 12.3399 29.1333 12.4315 29.0691C12.404 28.9958 12.349 28.9774 12.294 28.9499C12.239 28.9316 12.1749 28.9133 12.1199 28.8766C12.074 28.8491 12.0282 28.8124 12.0465 28.7483C12.0649 28.6841 12.1107 28.6566 12.1749 28.6566C12.294 28.6658 12.4224 28.675 12.5415 28.6841C12.8532 28.6933 13.1649 28.7116 13.4765 28.7208C13.5315 28.7208 13.5774 28.7299 13.6415 28.7391C13.6049 28.8766 13.5132 28.9041 13.4032 28.9133C13.284 28.9225 13.1649 28.9133 13.0549 28.9133C12.9815 28.9133 12.9082 28.9224 12.8349 28.9408C12.7615 28.9591 12.7157 29.0049 12.6974 29.0874C13.009 29.2066 13.3574 29.0874 13.6599 29.2341C13.6507 29.3074 13.5957 29.3349 13.5407 29.3441C13.504 29.3441 13.4582 29.3441 13.4215 29.3441C12.6607 29.2708 11.8999 29.2891 11.139 29.3075C10.9649 29.3075 10.7999 29.3258 10.6257 29.3258C10.5707 29.3258 10.5157 29.3075 10.4424 29.2983L10.4515 29.3166Z" fill="#6BC38F"></path>
<path d="M16.9141 16.6391C16.8133 16.6116 16.74 16.5841 16.6575 16.5658C16.7308 16.4925 16.8041 16.4283 16.9325 16.4466C16.9325 16.5108 16.9325 16.5658 16.9233 16.6391H16.9141Z" fill="#6BC38F"></path>
<path d="M36.3567 20.6542C36.3842 20.7367 36.3384 20.7733 36.2926 20.8008C36.2559 20.8283 36.2101 20.8558 36.1734 20.8833C35.6692 21.2133 35.1651 21.5525 34.6609 21.8917C34.6242 21.9192 34.5876 21.9558 34.5692 22.0017C34.3951 22.5333 34.2209 23.065 34.0467 23.6058C34.0009 23.7433 33.9734 23.8808 33.9459 24.0183C33.8909 24.2658 33.6801 24.3667 33.4601 24.2475C33.1392 24.0733 32.8001 24.0092 32.4517 23.9817C31.7917 23.9358 31.1317 24 30.4901 24.1558C30.3801 24.1833 30.2701 24.22 30.1326 24.2567C30.1601 24.2108 30.1601 24.1833 30.1784 24.165C30.2334 24.11 30.2884 24.0458 30.3434 24C30.7192 23.7158 31.0859 23.4317 31.4617 23.1475C31.5442 23.0833 31.6176 23.0742 31.7184 23.0925C32.1309 23.1567 32.5526 23.2117 32.9834 23.2758C33.0934 23.1108 33.2584 23.0008 33.4784 22.9825C33.5151 22.8083 33.5517 22.6342 33.5884 22.4508C33.6434 22.2125 33.6984 21.9833 33.7351 21.745C33.7626 21.6075 33.8359 21.5342 33.9642 21.4883C34.3767 21.3417 34.7892 21.1858 35.2017 21.0392C35.5409 20.92 35.8801 20.81 36.2192 20.7C36.2651 20.6817 36.3201 20.6817 36.3659 20.6725L36.3567 20.6542Z" fill="#6BC38F"></path>
</svg>
