<svg width="48" height="48" viewBox="0 0 48 48" fill="none" xmlns="http://www.w3.org/2000/svg" part="icon" aria-hidden="true">
<path fill-rule="evenodd" clip-rule="evenodd" d="M5.25854 30.4508H2.04766H1C1 30.4508 1.18431 30.8195 1.60143 30.8583C2.06706 30.8971 2.52299 31.1202 2.52299 31.5373C2.52299 31.5567 2.52299 31.5761 2.52299 31.5955V33.0118H2.38718C2.12526 33.0118 1.25221 33.2446 1.25221 33.2446C1.25221 33.2446 2.12526 33.4774 2.38718 33.4774H2.52299V35.1071C2.52299 35.5145 2.34838 35.6794 2.04766 35.7764V35.8831C2.04766 35.8831 2.814 35.8831 3.07592 35.8831C3.33783 35.8831 3.66765 35.7085 3.66765 35.2041V30.965H5.26824C6.96584 30.965 7.35386 32.0514 7.35386 33.1476C7.35386 34.2437 6.97554 35.3399 5.26824 35.3399C4.98693 35.3399 4.5698 35.3787 4.27879 35.5048C3.92957 35.66 3.78406 35.8637 3.78406 35.8637H5.26824C7.77098 35.8637 8.63433 34.5057 8.63433 33.1379C8.63433 31.7701 7.76128 30.412 5.26824 30.412L5.25854 30.4508ZM18.3155 34.9713C17.714 34.3505 16.9865 33.5162 16.9865 33.5162C17.8208 33.3998 18.2573 32.9342 18.2573 32.3521C18.2573 31.6828 17.6946 31.159 16.5403 31.159H13.7659C13.7659 31.159 13.7465 31.159 13.7368 31.159H12.9899C12.9899 31.159 13.1257 31.4403 13.4458 31.4694C13.7853 31.4985 14.1054 31.6537 14.1442 31.935V33.0797C13.795 33.1282 13.1742 33.3028 13.1742 33.3028C13.1742 33.3028 13.795 33.4677 14.1442 33.5259V34.787C14.1442 35.0974 14.0181 35.2429 13.795 35.3205C13.4555 35.272 13.2712 34.9325 13.1548 34.7094L11.2438 31.1687H9.779V31.2754C9.94391 31.3142 10.1379 31.4403 10.1961 31.5664L10.2543 31.6731L8.62463 34.6803C8.48882 34.9228 8.29481 35.3011 7.92619 35.3302V35.4369H9.61409V35.3302C9.37157 35.2623 9.11936 35.078 9.24547 34.8452L10.6423 32.2357L11.2535 33.4095H11.1759C10.914 33.4095 10.0409 33.6423 10.0409 33.6423C10.0409 33.6423 10.914 33.8751 11.1759 33.8751H11.496L11.9907 34.8258C12.1265 35.0877 11.8355 35.272 11.6124 35.3302V35.4369H15.5702V35.3302C15.3277 35.2623 15.2016 35.1071 15.2016 34.7967V31.7895C15.2016 31.6731 15.2501 31.6634 15.2889 31.6634H16.1523C16.8507 31.6634 17.0932 31.935 17.0932 32.3618C17.0932 32.7887 16.8507 33.07 16.162 33.07H15.3374V33.1767C15.3374 33.1767 15.8903 33.7878 16.938 34.9131C17.9954 36.0383 19.237 36.8532 20.3526 36.8532C20.7697 36.8532 21.0122 36.7465 21.0122 36.7465C19.596 36.2033 19.0042 35.6794 18.3252 34.9713H18.3155ZM23.5732 34.8064L21.8465 33.0991L22.9523 31.8477C23.1658 31.6537 23.5441 31.3627 23.8351 31.2851V31.1784H22.2636V31.2851C22.3994 31.2851 22.477 31.353 22.477 31.45C22.477 31.5179 22.4382 31.6052 22.3606 31.6828L21.1286 33.0409H20.4205V31.8186C20.4205 31.4985 20.5466 31.3433 20.7891 31.2851V31.1784H18.9945V31.2851C19.237 31.3433 19.3631 31.5082 19.3631 31.8186V33.1088C19.0042 33.167 18.4319 33.3222 18.4319 33.3222C18.4319 33.3222 19.0042 33.4774 19.3631 33.5356V34.8549C19.3631 35.1265 19.2176 35.2817 18.9945 35.3399V35.4466H20.7891V35.3399C20.5563 35.2817 20.4205 35.1265 20.4205 34.8549V33.4677H20.6921L22.6225 35.4466H24.4268V35.3399C24.291 35.3108 23.9321 35.1847 23.5829 34.8161L23.5732 34.8064ZM27.7735 29.1995H27.7347C27.6862 29.3547 27.5989 29.5099 27.3564 29.5099H26.3863C26.3863 29.5099 26.3669 29.4905 26.3669 29.4711V28.8211H26.6094C26.7938 28.8211 27.434 28.6368 27.434 28.6368C27.434 28.6368 26.7938 28.4525 26.6094 28.4525H26.3669V27.7153H27.2885C27.5407 27.7153 27.5892 27.8317 27.5989 27.9384H27.6474L27.7056 27.434H27.6571C27.6571 27.434 27.5601 27.4728 27.5116 27.4728H25.6394V27.531C25.7558 27.5601 25.8237 27.6474 25.8237 27.8123V29.3935C25.8237 29.5584 25.7558 29.6457 25.6394 29.6748V29.733H27.6571L27.7735 29.1898V29.1995ZM20.3041 27.6862H20.8667V29.4226C20.8667 29.5778 20.7891 29.636 20.663 29.6748V29.7233H21.6234V29.6748C21.4973 29.636 21.4197 29.5778 21.4197 29.4226V27.6862H21.9823C22.2733 27.6862 22.3315 27.8317 22.3897 27.9772H22.4285L22.3703 27.4534H19.9161L19.8579 27.9772H19.8967C19.9549 27.8317 20.0131 27.6862 20.3041 27.6862ZM40.8305 34.9422H38.9194C38.9194 34.9422 38.8709 34.9131 38.8709 34.8743V33.6908H39.356C39.7246 33.6908 40.9954 33.3513 40.9954 33.3513C40.9954 33.3513 39.7246 33.0118 39.356 33.0118H38.8709V31.6634H40.7043C41.2088 31.6634 41.3058 31.8865 41.3252 32.0902H41.4125L41.5192 31.1008H41.4222C41.3737 31.1881 41.2185 31.1784 41.1409 31.1687H37.4256V31.2754C37.6584 31.3336 37.7942 31.4985 37.7942 31.8089V34.787C37.7942 35.1071 37.6584 35.2526 37.4256 35.3205V35.4272H41.4222L41.655 34.3602H41.5677C41.4804 34.6512 41.2961 34.9422 40.8208 34.9422H40.8305ZM47 33.2446C47 33.2446 46.127 33.0118 45.865 33.0118H45.7195C44.798 32.4006 42.9064 32.9633 42.9064 32.1484C42.9064 31.6731 43.566 31.644 44.1868 31.644C44.8853 31.644 45.7098 31.9253 45.7195 32.6238H45.7971V31.256H45.7195L45.6322 31.4015C45.3897 31.2463 45.0599 31.062 43.9831 31.062C43.3235 31.062 42.0236 31.1493 42.0236 32.4685C42.0236 34.5833 45.3218 33.2252 45.3218 34.3213C45.3218 34.787 44.7301 34.9713 43.9346 34.9713C43.1392 34.9713 42.3631 34.8161 42.043 33.9139H41.9557L42.0139 35.1265C42.3437 35.3302 42.9646 35.5436 43.9734 35.5436C44.9241 35.5436 46.2046 35.3593 46.2046 34.0206C46.2046 33.7878 46.1658 33.6035 46.0978 33.4483C46.4568 33.3901 47 33.2446 47 33.2446ZM31.8477 35.0295L29.3838 30.4411H27.7347V30.5575C27.7929 30.5575 28.1615 30.6933 28.2294 30.8389L28.2585 30.8971L26.2311 34.6318C25.7461 35.5242 25.3193 35.7182 25.0865 35.7764V35.8831H27.2109V35.7764C26.9878 35.7085 26.5706 35.4951 26.755 35.1362L28.6757 31.547L29.6457 33.3707H29.4032C29.0346 33.3707 27.7638 33.7102 27.7638 33.7102C27.7638 33.7102 29.0249 34.0497 29.4032 34.0497H30.0046L30.5091 35.0004C30.5673 35.0877 30.5867 35.1653 30.5867 35.2429C30.5867 35.5242 30.2763 35.7085 30.0725 35.7764V35.8831H32.6626V35.7764C32.4395 35.6988 32.1194 35.5242 31.8477 35.0295ZM36.698 33.3707C36.2712 33.3707 34.4669 33.3707 34.4669 33.3707C34.4669 33.3707 34.6027 33.652 34.9228 33.6811C35.2332 33.7102 35.5437 33.846 35.6116 34.0982V34.8646C35.3399 34.9907 35.1459 35.0392 34.8258 35.0392C33.7685 35.0392 32.9148 34.4475 32.9148 33.3028C32.9148 32.1581 33.8364 31.5567 34.7579 31.5567C35.369 31.5567 36.3973 31.7992 36.5622 32.4006H36.6592L36.7174 31.1687H36.6301C36.5719 31.2754 36.504 31.3142 36.3585 31.3433C35.922 31.1881 35.2526 31.0523 34.5736 31.0523C32.5947 31.0523 31.7604 32.1387 31.7604 33.264C31.7604 34.6706 33.07 35.5436 34.6706 35.5436C35.4272 35.5436 36.0384 35.3496 36.6592 34.9616V34.0109C36.6592 33.9333 36.6592 33.8654 36.6883 33.7975C36.7271 33.7296 36.7659 33.6617 36.795 33.6035C36.8532 33.5356 36.9405 33.4968 37.0375 33.4677V33.361H36.7659C36.7659 33.361 36.7271 33.361 36.698 33.361V33.3707ZM24.4947 29.6748V29.7233H25.4163V29.6748C25.2902 29.636 25.2126 29.5681 25.2126 29.4226V27.7832C25.2126 27.6086 25.2805 27.5407 25.4163 27.4922V27.4437H24.4947V27.4922C24.6305 27.5407 24.6984 27.5989 24.6984 27.7832V28.4331H23.2725V27.7832C23.2725 27.6086 23.3501 27.5407 23.4762 27.4922V27.4437H22.5546V27.4922C22.6904 27.5407 22.7583 27.5989 22.7583 27.7832V29.4226C22.7583 29.5681 22.6807 29.636 22.5546 29.6748V29.7233H23.4762V29.6748C23.3501 29.636 23.2725 29.5778 23.2725 29.4226V28.7241H24.6984V29.4226C24.6984 29.5681 24.6111 29.636 24.4947 29.6748Z" fill="white"></path>
<path fill-rule="evenodd" clip-rule="evenodd" d="M11.1082 28.8697H18.4612C18.9656 28.8697 19.1014 28.3944 19.1014 28.3944C19.1014 28.3944 18.8104 28.5205 18.3739 28.5593C18.0926 28.5787 11.3507 28.7145 11.1082 28.8697ZM29.4422 28.5593C29.0057 28.5302 28.7147 28.3944 28.7147 28.3944C28.7147 28.3944 28.8505 28.8697 29.3549 28.8697H36.7079C36.4654 28.7145 29.7235 28.5787 29.4422 28.5593Z" fill="white"></path>
<path fill-rule="evenodd" clip-rule="evenodd" d="M17.0934 11.1467L16.1427 11.8549V22.283L21.0318 25.9595L23.7188 23.9418V11.8549L22.7682 11.1467H17.0837H17.0934ZM20.8863 22.0501L18.9947 20.6242V14.4061L19.2275 14.2315H20.6438L20.8766 14.4061V22.0501H20.8863ZM15.9099 11.8549L14.9592 11.1467H6.91748L8.33376 12.2138V27.8899L8.01364 28.9278L16.1427 22.8165L15.9099 22.6419V11.8549ZM13.0676 20.6242L11.176 22.0501V14.2315H12.8348L13.0676 14.4061V20.6242ZM36.4363 11.1467L35.5535 14.2315L34.6708 11.1467H31.7606V22.6419L31.5278 22.8165L34.6028 25.1252V19.5086L35.5535 23.9418L36.737 20.0615V26.3669L36.5042 26.5415L39.6665 28.9278L39.3464 27.8996V12.2138L40.7627 11.1467H36.4363ZM31.5375 11.8549L30.5868 11.1467H24.9023L23.9516 11.8549V23.9418L26.6387 25.9595L31.5278 22.283V11.8549H31.5375ZM28.6952 20.6242L26.8036 22.0501V14.4061L27.0364 14.2315H28.4527L28.6855 14.4061V20.6242H28.6952Z" fill="white"></path>
<path d="M40.0157 28.6369V28.2876H39.8799V28.2391H40.2V28.2876H40.0642V28.6369H40.0157Z" fill="white"></path>
<path d="M40.2583 28.6368V28.2391H40.3359L40.4329 28.5204C40.4329 28.5204 40.4523 28.5689 40.4523 28.5786C40.4523 28.5689 40.462 28.5398 40.4717 28.5107L40.5687 28.2294H40.6366V28.6271H40.5881V28.2876L40.4717 28.6271H40.4232L40.3068 28.2876V28.6271H40.2583V28.6368Z" fill="white"></path>
</svg>
