<svg xmlns="http://www.w3.org/2000/svg" fill="#8B8C8F" width="24" height="24" viewBox="0 0 24 24" part="icon" aria-hidden="true"><path d="M11.675 13.771a6.5 6.5 0 0 0-.954 2.042 6.8 6.8 0 0 1-3.048-.864c-.335.163-.705.457-1.057.916q-.141.184-.257.375a6.97 6.97 0 0 0 4.159 1.744c.052.71.218 1.388.48 2.016a9 9 0 1 1 8.974-8.282A6.5 6.5 0 0 0 18 11.076V11a7 7 0 1 0-12.973 3.651c.762-.995 1.821-1.75 3.002-1.85.853.643 1.874 1.018 2.971 1.018q.343 0 .675-.048"></path><path d="M14.375 8.975a3.375 3.375 0 1 0-6.75 0 3.375 3.375 0 0 0 6.75 0m-2 0a1.375 1.375 0 1 1-2.75 0 1.375 1.375 0 0 1 2.75 0M16.455 13h1.093a.5.5 0 0 1 .492.412l.167.936a.55.55 0 0 0 .288.381q.146.079.282.171a.55.55 0 0 0 .49.076l1.051-.368a.5.5 0 0 1 .59.209l.518.837a.5.5 0 0 1-.12.659l-.943.725a.55.55 0 0 0-.205.445v.058a.55.55 0 0 0 .205.445l.943.726a.5.5 0 0 1 .12.659l-.516.837a.5.5 0 0 1-.591.209l-1.053-.369a.55.55 0 0 0-.49.076q-.135.093-.282.171a.55.55 0 0 0-.289.382l-.166.935a.5.5 0 0 1-.493.412h-1.093a.5.5 0 0 1-.492-.412l-.167-.935a.55.55 0 0 0-.288-.382 3 3 0 0 1-.282-.171.55.55 0 0 0-.49-.075l-1.05.367a.5.5 0 0 1-.591-.209l-.517-.837a.5.5 0 0 1 .12-.659l.94-.724a.55.55 0 0 0 .206-.445v-.06a.55.55 0 0 0-.205-.445l-.942-.725a.5.5 0 0 1-.12-.659l.517-.837a.5.5 0 0 1 .59-.21l1.052.37a.55.55 0 0 0 .49-.076q.136-.093.283-.172a.55.55 0 0 0 .29-.382l.166-.934a.5.5 0 0 1 .492-.412M17 19.09a1.58 1.58 0 1 0 0-3.157 1.58 1.58 0 0 0 0 3.158Z"></path></svg>