<svg xmlns="http://www.w3.org/2000/svg" fill="#57585c" width="24px" height="24px" viewBox="0 0 24 24" part="icon" aria-hidden="true"><path d="M10.55 20.03 12 21.35l1.45-1.31.04-.036C18.616 15.344 22 12.27 22 8.5 22 5.42 19.58 3 16.5 3c-1.116 0-2.204.745-3.128 1.617A19 19 0 0 0 12 6.09c-.39-.459-.856-.986-1.372-1.473C9.704 3.745 8.616 3 7.5 3 4.42 3 2 5.42 2 8.5c0 3.777 3.394 6.855 8.537 11.518zm1.557-1.472-.002.002-.1.09-.109-.099-.003-.003c-2.615-2.371-4.623-4.198-6.001-5.883C4.536 11.008 4 9.733 4 8.5 4 6.525 5.525 5 7.5 5c.197 0 .607.121 1.25.631.609.484 1.193 1.129 1.727 1.756L12 9.175l1.523-1.788c.534-.627 1.118-1.272 1.727-1.756.643-.51 1.053-.631 1.25-.631C18.475 5 20 6.525 20 8.5c0 1.233-.537 2.508-1.892 4.167-1.379 1.686-3.386 3.515-6 5.89Z"></path></svg>