<?xml version="1.0" encoding="UTF-8"?>
<svg id="Layer_1" xmlns="http://www.w3.org/2000/svg" version="1.1" viewBox="0 0 974.84 243.53">
  <!-- Generator: Adobe Illustrator 29.5.0, SVG Export Plug-In . SVG Version: 2.1.0 Build 137)  -->
  <defs>
    <style>
      .st0 {
        fill: #f36d21;
      }

      .st1 {
        fill: #fff;
      }
    </style>
  </defs>
  <path class="st1" d="M276.96,2.7c34.56,5.39,33.71,56.27,30.1,82.29-2.59,18.68-11.45,32.36-31.82,32.82l-.09,6.39c18.06,1.53,28.71,8.06,33.42,25.99,3.91,14.87,3.77,52.13-1.33,66.65-4.22,12-17.98,26.64-31.48,26.64H0V2.7h276.96ZM222.99,94.03v-31.43l-1.78-1.78H84.21v33.21h138.77ZM84.21,147.41v37.96h139.37c.89,0,2.69-2.88,2.93-4.18.58-3.05.3-29.98-.56-31.4-.76-.61-2.99-2.37-3.56-2.37H84.21Z"/>
  <path class="st1" d="M362.06.64l251.19-.36c20.13,2.12,29.11,18.24,32.24,36.56.11,51.2,5.01,107.63,1.5,158.59-1.47,21.39-9.05,45.57-33.74,48.1h-247.99c-22.42-1.95-31.17-22.29-33.74-42.18,2.82-51.39-3.81-106.87-.06-157.78,1.4-19.09,10.11-38.94,30.6-42.94ZM561.61,73.87h-144.11l-1.78,1.78v92.52l1.78,1.78h144.11v-96.07Z"/>
  <path class="st0" d="M967.6,72.18l-113.87,158.74c-4.78,5.5-17.48,12.62-24.53,12.62h-79.69l122.22-171.35h95.86Z"/>
  <path class="st0" d="M974.84,35.25v29.74h-238.93c-1.01,0-7.43-3.41-8.93-4.32-14.31-8.5-41.86-40.74-53.69-54.65-1.55-1.84-2.98-3.94-4.18-6.02h274.18c23.15,0,31.54,8.14,31.54,35.25Z"/>
</svg>