<svg width="48" height="48" viewBox="0 0 48 48" fill="none" xmlns="http://www.w3.org/2000/svg" part="icon" aria-hidden="true">
<path d="M44.2475 15.357C44.6675 14.697 44.2475 13.557 44.3075 12.777C44.4275 11.997 45.7475 10.077 45.6275 9.29698C44.9675 9.35698 43.8875 9.47698 42.7475 9.29698C41.5475 9.17698 38.5475 9.71698 37.4675 10.197C36.3875 10.677 37.7075 9.77698 36.8675 9.41698C36.0275 9.11698 32.6075 10.497 32.6075 10.497L29.3075 10.257L24.1475 10.797V10.797V10.797V10.797V10.797V10.797V10.797L18.9275 10.317L15.6275 10.557C15.6275 10.557 12.2075 9.11698 11.3675 9.47698C10.5275 9.77698 11.9075 10.677 10.7675 10.257C9.68749 9.77698 6.68749 9.23698 5.48749 9.35698C4.28749 9.47698 3.26749 9.41698 2.60749 9.35698C2.48749 10.077 3.86749 12.057 3.92749 12.837C4.04749 13.617 3.56749 14.757 3.98749 15.417C4.40749 16.077 3.68749 16.437 3.68749 17.217C3.68749 17.997 5.30749 19.137 5.12749 19.797C4.94749 20.397 4.88749 21.777 5.12749 22.917C5.36749 24.057 5.96749 26.097 5.78749 27.057C5.60749 27.957 5.00749 29.817 5.12749 30.237C5.24749 30.657 5.30749 31.017 5.30749 31.617C5.30749 32.157 5.90749 33.717 5.78749 34.437C5.66749 35.157 5.96749 36.357 5.84749 36.717C5.72749 37.077 5.00749 38.757 5.66749 38.577C6.26749 38.397 10.1075 38.277 11.3675 38.277C11.9675 38.277 14.6675 38.577 17.6675 38.577C19.3475 38.577 19.1075 38.517 20.6075 38.337C21.1475 38.577 23.6075 38.577 23.8475 38.517C23.9075 38.517 24.0275 38.457 24.1475 38.457C24.2675 38.457 24.3275 38.517 24.4475 38.517C24.6875 38.577 27.0875 38.577 27.6875 38.337C29.1875 38.517 28.9475 38.577 30.6275 38.577C33.6275 38.637 36.3275 38.277 36.9275 38.277C38.2475 38.277 42.0275 38.337 42.6275 38.577C43.2275 38.757 42.5075 37.137 42.4475 36.717C42.3275 36.357 42.6875 35.157 42.5075 34.437C42.3875 33.717 42.9875 32.157 42.9875 31.617C42.9875 31.077 43.0475 30.657 43.1675 30.237C43.2875 29.817 42.6275 27.957 42.5075 27.057C42.3275 26.157 42.9275 24.117 43.1675 22.917C43.4075 21.777 43.3475 20.397 43.1675 19.797C42.9875 19.197 44.6075 17.997 44.6075 17.217C44.6075 16.377 43.8275 16.017 44.2475 15.357Z" fill="#1E394F"></path>
<path fill-rule="evenodd" clip-rule="evenodd" d="M15.2316 41.6211V42H5V41.6211C5.56842 41.2421 6.89474 39.9158 6.89474 39.3474V8.46316C6.89474 7.89474 5.37895 6.56842 5 6.18947V6H15.4211V6.37895C14.8526 6.75789 13.5263 7.89474 13.5263 8.65263V11.1158H10.4947C9.92632 11.1158 9.35789 11.4947 9.16842 12.0632C8.97895 12.6316 9.35789 13.2 9.73684 13.5789C10.3053 14.1474 10.8737 14.7158 11.0632 15.6632C11.0632 15.8526 11.2526 16.4211 11.6316 17.5579C12.0105 19.2632 12.7684 21.9158 13.3368 24.7579V39.5368C13.3368 40.1053 14.6632 41.2421 15.2316 41.6211ZM30.0105 41.621V42H19.5895V41.621C20.1579 41.2421 21.4842 40.1053 21.4842 39.5368V37.4526H23.9474C24.3263 37.4526 24.7053 37.0737 24.8947 36.6947C25.0842 36.8842 25.4632 37.4526 25.8421 37.4526H27.7369V39.5368C27.9263 40.2947 29.2526 41.4316 30.0105 41.621ZM18.8316 6.37895V6H29.2526V6.37895C28.6842 6.75789 27.3579 8.08421 27.3579 8.65263C27.3579 9.03158 27.7368 16.4211 27.7368 21.5368L25.4632 12.6316C25.2737 12.0632 24.7053 11.6842 24.1368 11.6842C23.5684 11.6842 23 12.0632 22.8105 12.6316L20.7263 21.3474V8.46316C20.7263 8.08421 19.4 6.75789 18.8316 6.37895ZM41 39.3474C41 39.9158 42.5158 41.2421 42.8947 41.6211V42H32.6631V41.6211C33.2316 41.2421 34.5579 39.9158 34.5579 39.3474V26.0842C35.3158 22.1053 36.0737 17.7474 36.4526 16.2316C36.8316 15.0947 37.4 14.1474 38.3474 13.2C38.7263 12.8211 38.9158 12.2526 38.7263 11.6842C38.5368 11.1158 37.9684 10.7368 37.4 10.7368H34.5579V8.65263C34.5579 8.08421 33.2316 6.75789 32.6631 6.37895V6H42.8947V6.37895C42.3263 6.75789 41 8.08421 41 8.65263V39.3474Z" fill="#79ACCB"></path>
<path fill-rule="evenodd" clip-rule="evenodd" d="M11.0632 12.821H18.4527C18.2632 13.5789 18.2632 14.5263 18.2632 15.2842C18.6422 18.5053 20.7264 27.7895 20.7264 27.7895L24.3264 13.3895L27.9264 27.4105C27.9264 27.4105 30.0106 15.0947 30.0106 14.3368C30.0106 13.7684 29.6317 13.2 29.0632 12.821H36.8317C35.8843 13.7684 34.9369 15.0947 34.558 16.421C33.8001 19.0737 31.3369 32.7158 31.3369 33.6631C31.3369 34.6105 31.7159 35.3684 32.2843 36.1263H25.0843C25.2738 35.5579 25.2738 34.8 25.2738 34.0421C25.2738 32.7158 24.1369 26.8421 24.1369 26.8421C24.1369 26.8421 22.6211 32.9053 22.6211 34.0421C22.6211 34.8 22.8106 35.3684 23.1895 35.9368H15.6106C15.6106 35.9368 17.1264 34.9895 16.9369 33.8526C16.7474 31.0105 12.958 16.6105 12.579 15.4737C12.579 14.5263 12.0106 13.5789 11.0632 12.821Z" fill="#F8B700"></path>
</svg>
